<svg width="2379" height="39" viewBox="0 0 2379 39" fill="none" xmlns="http://www.w3.org/2000/svg">
<g opacity="0.1">
<mask id="path-1-outside-1_6816_434" maskUnits="userSpaceOnUse" x="-1.77783" y="-1.31824" width="2384" height="41" fill="black">
<rect fill="white" x="-1.77783" y="-1.31824" width="2384" height="41"/>
<path d="M0.154965 37.6818L9.93097 1.28176L55.743 1.28176L53.403 10.1218L19.031 10.1218L17.159 17.0898L47.891 17.0898L45.551 25.8778H14.819L11.647 37.6818H0.154965ZM108.486 18.9098C106.649 25.8084 103.304 30.7831 98.4504 33.8338C93.5971 36.8498 87.0797 38.3578 78.8984 38.3578C73.1091 38.3578 68.4637 37.5084 64.9624 35.8098C61.4611 34.1111 59.1037 31.7711 57.8904 28.7898C56.7117 25.8084 56.6424 22.3938 57.6824 18.5458L62.3104 1.28176H73.8024L69.2784 18.2858C68.2384 22.1338 68.7237 24.9764 70.7344 26.8138C72.7797 28.6164 75.9344 29.5178 80.1984 29.5178C84.4624 29.5178 88.0851 28.6511 91.0664 26.9178C94.0477 25.1498 96.0584 22.3591 97.0984 18.5458L101.726 1.28176L113.218 1.28176L108.486 18.9098ZM113.397 37.6818L123.173 1.28176H134.665L127.281 28.8418H156.245L153.853 37.6818H113.397ZM161.589 37.6818L171.365 1.28176L182.857 1.28176L175.473 28.8418L204.437 28.8418L202.045 37.6818L161.589 37.6818ZM209.572 26.6058L211.964 17.7138L239.368 17.7138L236.976 26.6058H209.572ZM243.486 22.6018C243.486 19.4818 244.231 16.5871 245.722 13.9178C247.212 11.2138 249.362 8.87376 252.17 6.89776C255.012 4.92176 258.444 3.37909 262.466 2.26976C266.487 1.16043 271.046 0.60576 276.142 0.60576C283.803 0.60576 289.696 1.68043 293.822 3.82976C297.982 5.97909 300.183 9.11643 300.426 13.2418L288.518 15.6338C288.379 13.5538 287.235 12.0111 285.086 11.0058C282.936 9.96576 279.626 9.44576 275.154 9.44576C270.612 9.44576 266.886 10.0178 263.974 11.1618C261.062 12.2711 258.912 13.7444 257.526 15.5818C256.174 17.3844 255.498 19.3084 255.498 21.3538C255.498 23.9884 256.624 26.0164 258.878 27.4378C261.166 28.8244 264.771 29.5178 269.694 29.5178C273.819 29.5178 277.182 28.9978 279.782 27.9578C282.416 26.9178 284.427 25.3058 285.814 23.1218L297.202 25.4098C295.676 28.3218 293.666 30.7311 291.17 32.6378C288.708 34.5444 285.588 35.9831 281.81 36.9538C278.031 37.8898 273.438 38.3578 268.03 38.3578C260.091 38.3578 254.007 36.9884 249.778 34.2498C245.583 31.5111 243.486 27.6284 243.486 22.6018ZM314.953 37.6818L318.697 23.7458L303.097 1.28176H316.721L326.185 15.0618L342.565 1.28176H357.593L329.981 24.5778L326.445 37.6818L314.953 37.6818ZM353.681 22.6018C353.681 19.4818 354.426 16.5871 355.917 13.9178C357.408 11.2138 359.557 8.87376 362.365 6.89776C365.208 4.92176 368.64 3.37909 372.661 2.26976C376.682 1.16043 381.241 0.60576 386.337 0.60576C393.998 0.60576 399.892 1.68043 404.017 3.82976C408.177 5.97909 410.378 9.11643 410.621 13.2418L398.713 15.6338C398.574 13.5538 397.43 12.0111 395.281 11.0058C393.132 9.96576 389.821 9.44576 385.349 9.44576C380.808 9.44576 377.081 10.0178 374.169 11.1618C371.257 12.2711 369.108 13.7444 367.721 15.5818C366.369 17.3844 365.693 19.3084 365.693 21.3538C365.693 23.9884 366.82 26.0164 369.073 27.4378C371.361 28.8244 374.966 29.5178 379.889 29.5178C384.014 29.5178 387.377 28.9978 389.977 27.9578C392.612 26.9178 394.622 25.3058 396.009 23.1218L407.397 25.4098C405.872 28.3218 403.861 30.7311 401.365 32.6378C398.904 34.5444 395.784 35.9831 392.005 36.9538C388.226 37.8898 383.633 38.3578 378.225 38.3578C370.286 38.3578 364.202 36.9884 359.973 34.2498C355.778 31.5111 353.681 27.6284 353.681 22.6018ZM411.991 37.6818L421.767 1.28176L433.259 1.28176L425.875 28.8418L454.839 28.8418L452.447 37.6818L411.991 37.6818ZM460.182 37.6818L469.958 1.28176L515.77 1.28176L513.586 9.44576H478.902L477.394 15.0618L508.49 15.0618L506.306 23.1738H475.262L473.546 29.5178H508.594L506.41 37.6818H460.182ZM530.819 37.6818L540.595 1.28176L586.407 1.28176L584.223 9.44576H549.539L548.031 15.0618H579.127L576.943 23.1738L545.899 23.1738L544.183 29.5178L579.231 29.5178L577.047 37.6818L530.819 37.6818ZM601.946 1.28176L610.994 26.6578L633.77 1.28176H647.29L614.634 37.6818H602.83L589.674 1.28176L601.946 1.28176ZM643.198 37.6818L652.974 1.28176L698.786 1.28176L696.602 9.44576L661.918 9.44576L660.41 15.0618L691.506 15.0618L689.322 23.1738H658.278L656.562 29.5178H691.61L689.426 37.6818H643.198ZM697.737 37.6818L707.513 1.28176L718.641 1.28176L741.365 26.7618L748.177 1.28176L758.993 1.28176L749.269 37.6818H738.141L715.417 12.2018L708.553 37.6818L697.737 37.6818ZM775.691 37.6818L783.075 10.1218H763.627L766.019 1.28176L816.408 1.28176L814.016 10.1218L794.567 10.1218L787.183 37.6818H775.691ZM872.72 37.6818L870.224 31.1298H843.756L837.724 37.6818L824.256 37.6818L858.368 1.28176H870.172L884.784 37.6818H872.72ZM851.348 22.9138H867.052L862.424 10.9018L851.348 22.9138ZM889.221 22.5498C889.221 19.4298 889.967 16.5351 891.457 13.8658C892.948 11.1964 895.097 8.87376 897.905 6.89776C900.748 4.92176 904.18 3.37909 908.201 2.26976C912.223 1.16043 916.781 0.60576 921.877 0.60576C929.539 0.60576 935.432 1.64576 939.557 3.72576C943.683 5.80576 945.884 8.85643 946.161 12.8778L934.201 15.2178C934.063 13.2764 932.919 11.8378 930.769 10.9018C928.655 9.93109 925.344 9.44576 920.837 9.44576C916.296 9.44576 912.569 10.0178 909.657 11.1618C906.745 12.2711 904.596 13.7444 903.209 15.5818C901.857 17.3844 901.181 19.3084 901.181 21.3538C901.181 23.9884 902.36 26.0164 904.717 27.4378C907.109 28.8244 910.767 29.5178 915.689 29.5178C919.78 29.5178 923.229 29.1364 926.037 28.3738C928.845 27.6111 931.064 26.3978 932.693 24.7338H916.469L918.497 17.1418L946.889 17.1418L941.377 37.6818H932.537L933.161 31.4938C930.596 33.7124 927.528 35.4111 923.957 36.5898C920.421 37.7684 916.487 38.3578 912.153 38.3578C904.319 38.3578 898.529 36.9884 894.785 34.2498C891.076 31.4764 889.221 27.5764 889.221 22.5498ZM950.983 37.6818L960.759 1.28176L1006.57 1.28176L1004.39 9.44576L969.703 9.44576L968.195 15.0618L999.291 15.0618L997.107 23.1738H966.063L964.347 29.5178H999.395L997.211 37.6818L950.983 37.6818ZM1005.52 37.6818L1015.3 1.28176H1026.43L1049.15 26.7618L1055.96 1.28176H1066.78L1057.05 37.6818H1045.93L1023.2 12.2018L1016.34 37.6818H1005.52ZM1069.7 22.6018C1069.7 19.4818 1070.44 16.5871 1071.93 13.9178C1073.42 11.2138 1075.57 8.87376 1078.38 6.89776C1081.22 4.92176 1084.66 3.37909 1088.68 2.26976C1092.7 1.16043 1097.26 0.60576 1102.35 0.60576C1110.01 0.60576 1115.91 1.68043 1120.03 3.82976C1124.19 5.97909 1126.39 9.11643 1126.64 13.2418L1114.73 15.6338C1114.59 13.5538 1113.45 12.0111 1111.3 11.0058C1109.15 9.96576 1105.84 9.44576 1101.36 9.44576C1096.82 9.44576 1093.1 10.0178 1090.18 11.1618C1087.27 12.2711 1085.12 13.7444 1083.74 15.5818C1082.38 17.3844 1081.71 19.3084 1081.71 21.3538C1081.71 23.9884 1082.84 26.0164 1085.09 27.4378C1087.38 28.8244 1090.98 29.5178 1095.9 29.5178C1100.03 29.5178 1103.39 28.9978 1105.99 27.9578C1108.63 26.9178 1110.64 25.3058 1112.02 23.1218L1123.41 25.4098C1121.89 28.3218 1119.88 30.7311 1117.38 32.6378C1114.92 34.5444 1111.8 35.9831 1108.02 36.9538C1104.24 37.8898 1099.65 38.3578 1094.24 38.3578C1086.3 38.3578 1080.22 36.9884 1075.99 34.2498C1071.79 31.5111 1069.7 27.6284 1069.7 22.6018ZM1141.16 37.6818L1144.91 23.7458L1129.31 1.28176L1142.93 1.28176L1152.4 15.0618L1168.78 1.28176H1183.8L1156.19 24.5778L1152.66 37.6818H1141.16ZM1194.99 37.6818L1204.76 1.28176L1250.57 1.28176L1248.23 10.1218L1213.86 10.1218L1211.99 17.0898H1242.72L1240.38 25.8778L1209.65 25.8778L1206.48 37.6818H1194.99ZM1303.32 18.9098C1301.48 25.8084 1298.14 30.7831 1293.28 33.8338C1288.43 36.8498 1281.91 38.3578 1273.73 38.3578C1267.94 38.3578 1263.3 37.5084 1259.79 35.8098C1256.29 34.1111 1253.94 31.7711 1252.72 28.7898C1251.54 25.8084 1251.47 22.3938 1252.51 18.5458L1257.14 1.28176L1268.63 1.28176L1264.11 18.2858C1263.07 22.1338 1263.56 24.9764 1265.57 26.8138C1267.61 28.6164 1270.77 29.5178 1275.03 29.5178C1279.29 29.5178 1282.92 28.6511 1285.9 26.9178C1288.88 25.1498 1290.89 22.3591 1291.93 18.5458L1296.56 1.28176H1308.05L1303.32 18.9098ZM1308.23 37.6818L1318.01 1.28176L1329.5 1.28176L1322.11 28.8418L1351.08 28.8418L1348.69 37.6818L1308.23 37.6818ZM1356.42 37.6818L1366.2 1.28176H1377.69L1370.3 28.8418H1399.27L1396.88 37.6818H1356.42ZM1404.4 26.6058L1406.8 17.7138H1434.2L1431.81 26.6058H1404.4ZM1438.32 22.6018C1438.32 19.4818 1439.06 16.5871 1440.55 13.9178C1442.04 11.2138 1444.19 8.87376 1447 6.89776C1449.84 4.92176 1453.28 3.37909 1457.3 2.26976C1461.32 1.16043 1465.88 0.60576 1470.97 0.60576C1478.64 0.60576 1484.53 1.68043 1488.65 3.82976C1492.81 5.97909 1495.02 9.11643 1495.26 13.2418L1483.35 15.6338C1483.21 13.5538 1482.07 12.0111 1479.92 11.0058C1477.77 9.96576 1474.46 9.44576 1469.99 9.44576C1465.44 9.44576 1461.72 10.0178 1458.81 11.1618C1455.89 12.2711 1453.74 13.7444 1452.36 15.5818C1451.01 17.3844 1450.33 19.3084 1450.33 21.3538C1450.33 23.9884 1451.46 26.0164 1453.71 27.4378C1456 28.8244 1459.6 29.5178 1464.53 29.5178C1468.65 29.5178 1472.01 28.9978 1474.61 27.9578C1477.25 26.9178 1479.26 25.3058 1480.65 23.1218L1492.03 25.4098C1490.51 28.3218 1488.5 30.7311 1486 32.6378C1483.54 34.5444 1480.42 35.9831 1476.64 36.9538C1472.86 37.8898 1468.27 38.3578 1462.86 38.3578C1454.92 38.3578 1448.84 36.9884 1444.61 34.2498C1440.42 31.5111 1438.32 27.6284 1438.32 22.6018ZM1509.79 37.6818L1513.53 23.7458L1497.93 1.28176H1511.55L1521.02 15.0618L1537.4 1.28176L1552.43 1.28176L1524.81 24.5778L1521.28 37.6818H1509.79ZM1548.51 22.6018C1548.51 19.4818 1549.26 16.5871 1550.75 13.9178C1552.24 11.2138 1554.39 8.87376 1557.2 6.89776C1560.04 4.92176 1563.47 3.37909 1567.49 2.26976C1571.51 1.16043 1576.07 0.60576 1581.17 0.60576C1588.83 0.60576 1594.72 1.68043 1598.85 3.82976C1603.01 5.97909 1605.21 9.11643 1605.45 13.2418L1593.55 15.6338C1593.41 13.5538 1592.26 12.0111 1590.11 11.0058C1587.96 9.96576 1584.65 9.44576 1580.18 9.44576C1575.64 9.44576 1571.91 10.0178 1569 11.1618C1566.09 12.2711 1563.94 13.7444 1562.55 15.5818C1561.2 17.3844 1560.53 19.3084 1560.53 21.3538C1560.53 23.9884 1561.65 26.0164 1563.91 27.4378C1566.19 28.8244 1569.8 29.5178 1574.72 29.5178C1578.85 29.5178 1582.21 28.9978 1584.81 27.9578C1587.44 26.9178 1589.45 25.3058 1590.84 23.1218L1602.23 25.4098C1600.7 28.3218 1598.69 30.7311 1596.2 32.6378C1593.74 34.5444 1590.62 35.9831 1586.84 36.9538C1583.06 37.8898 1578.47 38.3578 1573.06 38.3578C1565.12 38.3578 1559.03 36.9884 1554.81 34.2498C1550.61 31.5111 1548.51 27.6284 1548.51 22.6018ZM1606.82 37.6818L1616.6 1.28176H1628.09L1620.71 28.8418H1649.67L1647.28 37.6818H1606.82ZM1655.01 37.6818L1664.79 1.28176L1710.6 1.28176L1708.42 9.44576L1673.73 9.44576L1672.23 15.0618L1703.32 15.0618L1701.14 23.1738H1670.09L1668.38 29.5178H1703.43L1701.24 37.6818H1655.01ZM1725.65 37.6818L1735.43 1.28176L1781.24 1.28176L1779.06 9.44576L1744.37 9.44576L1742.86 15.0618L1773.96 15.0618L1771.78 23.1738H1740.73L1739.02 29.5178H1774.06L1771.88 37.6818L1725.65 37.6818ZM1796.78 1.28176L1805.83 26.6578L1828.6 1.28176L1842.12 1.28176L1809.47 37.6818H1797.66L1784.51 1.28176H1796.78ZM1838.03 37.6818L1847.81 1.28176L1893.62 1.28176L1891.43 9.44576L1856.75 9.44576L1855.24 15.0618L1886.34 15.0618L1884.15 23.1738L1853.11 23.1738L1851.39 29.5178L1886.44 29.5178L1884.26 37.6818L1838.03 37.6818ZM1892.57 37.6818L1902.35 1.28176H1913.47L1936.2 26.7618L1943.01 1.28176H1953.83L1944.1 37.6818H1932.97L1910.25 12.2018L1903.39 37.6818H1892.57ZM1970.52 37.6818L1977.91 10.1218H1958.46L1960.85 1.28176L2011.24 1.28176L2008.85 10.1218H1989.4L1982.02 37.6818H1970.52ZM2067.55 37.6818L2065.06 31.1298H2038.59L2032.56 37.6818H2019.09L2053.2 1.28176L2065 1.28176L2079.62 37.6818H2067.55ZM2046.18 22.9138H2061.88L2057.26 10.9018L2046.18 22.9138ZM2084.05 22.5498C2084.05 19.4298 2084.8 16.5351 2086.29 13.8658C2087.78 11.1964 2089.93 8.87376 2092.74 6.89776C2095.58 4.92176 2099.01 3.37909 2103.03 2.26976C2107.05 1.16043 2111.61 0.60576 2116.71 0.60576C2124.37 0.60576 2130.26 1.64576 2134.39 3.72576C2138.51 5.80576 2140.72 8.85643 2140.99 12.8778L2129.03 15.2178C2128.89 13.2764 2127.75 11.8378 2125.6 10.9018C2123.49 9.93109 2120.18 9.44576 2115.67 9.44576C2111.13 9.44576 2107.4 10.0178 2104.49 11.1618C2101.58 12.2711 2099.43 13.7444 2098.04 15.5818C2096.69 17.3844 2096.01 19.3084 2096.01 21.3538C2096.01 23.9884 2097.19 26.0164 2099.55 27.4378C2101.94 28.8244 2105.6 29.5178 2110.52 29.5178C2114.61 29.5178 2118.06 29.1364 2120.87 28.3738C2123.68 27.6111 2125.9 26.3978 2127.53 24.7338H2111.3L2113.33 17.1418H2141.72L2136.21 37.6818H2127.37L2127.99 31.4938C2125.43 33.7124 2122.36 35.4111 2118.79 36.5898C2115.25 37.7684 2111.32 38.3578 2106.99 38.3578C2099.15 38.3578 2093.36 36.9884 2089.62 34.2498C2085.91 31.4764 2084.05 27.5764 2084.05 22.5498ZM2145.82 37.6818L2155.59 1.28176L2201.4 1.28176L2199.22 9.44576H2164.54L2163.03 15.0618H2194.12L2191.94 23.1738H2160.9L2159.18 29.5178H2194.23L2192.04 37.6818H2145.82ZM2200.35 37.6818L2210.13 1.28176H2221.26L2243.98 26.7618L2250.79 1.28176L2261.61 1.28176L2251.89 37.6818H2240.76L2218.03 12.2018L2211.17 37.6818H2200.35ZM2264.53 22.6018C2264.53 19.4818 2265.27 16.5871 2266.76 13.9178C2268.26 11.2138 2270.4 8.87376 2273.21 6.89776C2276.06 4.92176 2279.49 3.37909 2283.51 2.26976C2287.53 1.16043 2292.09 0.60576 2297.18 0.60576C2304.85 0.60576 2310.74 1.68043 2314.86 3.82976C2319.02 5.97909 2321.23 9.11643 2321.47 13.2418L2309.56 15.6338C2309.42 13.5538 2308.28 12.0111 2306.13 11.0058C2303.98 9.96576 2300.67 9.44576 2296.2 9.44576C2291.66 9.44576 2287.93 10.0178 2285.02 11.1618C2282.1 12.2711 2279.96 13.7444 2278.57 15.5818C2277.22 17.3844 2276.54 19.3084 2276.54 21.3538C2276.54 23.9884 2277.67 26.0164 2279.92 27.4378C2282.21 28.8244 2285.81 29.5178 2290.74 29.5178C2294.86 29.5178 2298.22 28.9978 2300.82 27.9578C2303.46 26.9178 2305.47 25.3058 2306.86 23.1218L2318.24 25.4098C2316.72 28.3218 2314.71 30.7311 2312.21 32.6378C2309.75 34.5444 2306.63 35.9831 2302.85 36.9538C2299.07 37.8898 2294.48 38.3578 2289.07 38.3578C2281.13 38.3578 2275.05 36.9884 2270.82 34.2498C2266.63 31.5111 2264.53 27.6284 2264.53 22.6018ZM2336 37.6818L2339.74 23.7458L2324.14 1.28176H2337.76L2347.23 15.0618L2363.61 1.28176H2378.64L2351.02 24.5778L2347.49 37.6818H2336Z"/>
</mask>
<path d="M0.154965 37.6818L-0.810811 37.4224L-1.14904 38.6818H0.154965V37.6818ZM9.93097 1.28176V0.28176H9.1641L8.96519 1.02238L9.93097 1.28176ZM55.743 1.28176L56.7097 1.53765L57.0421 0.28176H55.743V1.28176ZM53.403 10.1218V11.1218H54.1727L54.3697 10.3777L53.403 10.1218ZM19.031 10.1218V9.12176H18.2642L18.0652 9.8623L19.031 10.1218ZM17.159 17.0898L16.1932 16.8303L15.8548 18.0898H17.159V17.0898ZM47.891 17.0898L48.8573 17.3471L49.1921 16.0898H47.891V17.0898ZM45.551 25.8778V26.8778H46.3195L46.5173 26.1351L45.551 25.8778ZM14.819 25.8778V24.8778H14.0522L13.8532 25.6182L14.819 25.8778ZM11.647 37.6818V38.6818H12.4137L12.6127 37.9413L11.647 37.6818ZM1.12074 37.9411L10.8967 1.54114L8.96519 1.02238L-0.810811 37.4224L1.12074 37.9411ZM9.93097 2.28176L55.743 2.28176V0.28176L9.93097 0.28176V2.28176ZM54.7763 1.02587L52.4363 9.86587L54.3697 10.3777L56.7097 1.53765L54.7763 1.02587ZM53.403 9.12176L19.031 9.12176V11.1218L53.403 11.1218V9.12176ZM18.0652 9.8623L16.1932 16.8303L18.1247 17.3492L19.9967 10.3812L18.0652 9.8623ZM17.159 18.0898L47.891 18.0898V16.0898L17.159 16.0898V18.0898ZM46.9246 16.8325L44.5846 25.6205L46.5173 26.1351L48.8573 17.3471L46.9246 16.8325ZM45.551 24.8778H14.819V26.8778H45.551V24.8778ZM13.8532 25.6182L10.6812 37.4222L12.6127 37.9413L15.7847 26.1373L13.8532 25.6182ZM11.647 36.6818H0.154965V38.6818H11.647V36.6818ZM108.486 18.9098L107.521 18.6505L107.52 18.6524L108.486 18.9098ZM98.4504 33.8338L98.9782 34.6831L98.9826 34.6804L98.4504 33.8338ZM64.9624 35.8098L64.5259 36.7095L64.5259 36.7095L64.9624 35.8098ZM57.8904 28.7898L56.9604 29.1574L56.9642 29.1667L57.8904 28.7898ZM57.6824 18.5458L58.6478 18.8067L58.6483 18.8047L57.6824 18.5458ZM62.3104 1.28176V0.28176H61.5432L61.3445 1.02283L62.3104 1.28176ZM73.8024 1.28176L74.7688 1.53887L75.1032 0.28176H73.8024V1.28176ZM69.2784 18.2858L70.2438 18.5467L70.2448 18.5429L69.2784 18.2858ZM70.7344 26.8138L70.0598 27.552L70.0665 27.558L70.0732 27.564L70.7344 26.8138ZM91.0664 26.9178L91.569 27.7823L91.5765 27.7779L91.0664 26.9178ZM97.0984 18.5458L98.0632 18.8089L98.0643 18.8047L97.0984 18.5458ZM101.726 1.28176V0.28176H100.959L100.761 1.02283L101.726 1.28176ZM113.218 1.28176L114.184 1.54102L114.522 0.28176H113.218V1.28176ZM107.52 18.6524C105.731 25.3695 102.508 30.1019 97.9182 32.9871L98.9826 34.6804C104.099 31.4643 107.567 26.2473 109.453 19.1671L107.52 18.6524ZM97.9226 32.9844C93.282 35.8682 86.9696 37.3578 78.8984 37.3578V39.3578C87.1899 39.3578 93.9121 37.8313 98.9782 34.6831L97.9226 32.9844ZM78.8984 37.3578C73.1927 37.3578 68.7142 36.5185 65.3989 34.9101L64.5259 36.7095C68.2132 38.4984 73.0254 39.3578 78.8984 39.3578V37.3578ZM65.3989 34.9101C62.0709 33.2955 59.9183 31.1197 58.8166 28.4128L56.9642 29.1667C58.2892 32.4225 60.8512 34.9267 64.5259 36.7095L65.3989 34.9101ZM58.8204 28.4221C57.7384 25.6854 57.6501 22.4982 58.6478 18.8067L56.717 18.2849C55.6348 22.2893 55.685 25.9314 56.9604 29.1574L58.8204 28.4221ZM58.6483 18.8047L63.2763 1.54069L61.3445 1.02283L56.7165 18.2868L58.6483 18.8047ZM62.3104 2.28176H73.8024V0.28176H62.3104V2.28176ZM72.836 1.02465L68.312 18.0287L70.2448 18.5429L74.7688 1.53887L72.836 1.02465ZM68.313 18.0249C67.2262 22.0463 67.654 25.3535 70.0598 27.552L71.409 26.0756C69.7935 24.5993 69.2507 22.2212 70.2438 18.5467L68.313 18.0249ZM70.0732 27.564C72.38 29.5971 75.8219 30.5178 80.1984 30.5178V28.5178C76.0469 28.5178 73.1795 27.6358 71.3956 26.0636L70.0732 27.564ZM80.1984 30.5178C84.5975 30.5178 88.4028 29.6231 91.569 27.7823L90.5638 26.0533C87.7673 27.6791 84.3273 28.5178 80.1984 28.5178V30.5178ZM91.5765 27.7779C94.8129 25.8586 96.9652 22.8347 98.0632 18.8089L96.1336 18.2826C95.1516 21.8835 93.2826 24.4409 90.5563 26.0576L91.5765 27.7779ZM98.0643 18.8047L102.692 1.54069L100.761 1.02283L96.1325 18.2868L98.0643 18.8047ZM101.726 2.28176L113.218 2.28176V0.28176L101.726 0.28176V2.28176ZM112.253 1.0225L107.521 18.6505L109.452 19.169L114.184 1.54102L112.253 1.0225ZM113.397 37.6818L112.431 37.4224L112.093 38.6818H113.397V37.6818ZM123.173 1.28176V0.28176H122.406L122.207 1.02238L123.173 1.28176ZM134.665 1.28176L135.631 1.54056L135.968 0.28176H134.665V1.28176ZM127.281 28.8418L126.315 28.583L125.978 29.8418H127.281V28.8418ZM156.245 28.8418L157.21 29.103L157.552 27.8418H156.245V28.8418ZM153.853 37.6818V38.6818H154.619L154.818 37.943L153.853 37.6818ZM114.363 37.9411L124.139 1.54114L122.207 1.02238L112.431 37.4224L114.363 37.9411ZM123.173 2.28176H134.665V0.28176H123.173V2.28176ZM133.699 1.02296L126.315 28.583L128.247 29.1006L135.631 1.54056L133.699 1.02296ZM127.281 29.8418H156.245V27.8418H127.281V29.8418ZM155.28 28.5806L152.888 37.4206L154.818 37.943L157.21 29.103L155.28 28.5806ZM153.853 36.6818H113.397V38.6818H153.853V36.6818ZM161.589 37.6818L160.623 37.4224L160.285 38.6818H161.589V37.6818ZM171.365 1.28176V0.28176H170.598L170.399 1.02238L171.365 1.28176ZM182.857 1.28176L183.822 1.54056L184.16 0.28176H182.857V1.28176ZM175.473 28.8418L174.507 28.583L174.169 29.8418H175.473V28.8418ZM204.437 28.8418L205.402 29.103L205.743 27.8418H204.437V28.8418ZM202.045 37.6818V38.6818H202.81L203.01 37.943L202.045 37.6818ZM162.554 37.9411L172.33 1.54114L170.399 1.02238L160.623 37.4224L162.554 37.9411ZM171.365 2.28176L182.857 2.28176V0.28176L171.365 0.28176V2.28176ZM181.891 1.02296L174.507 28.583L176.438 29.1006L183.822 1.54056L181.891 1.02296ZM175.473 29.8418L204.437 29.8418V27.8418L175.473 27.8418V29.8418ZM203.471 28.5806L201.079 37.4206L203.01 37.943L205.402 29.103L203.471 28.5806ZM202.045 36.6818L161.589 36.6818V38.6818L202.045 38.6818V36.6818ZM209.572 26.6058L208.606 26.346L208.267 27.6058H209.572V26.6058ZM211.964 17.7138V16.7138H211.197L210.998 17.454L211.964 17.7138ZM239.368 17.7138L240.334 17.9735L240.673 16.7138H239.368V17.7138ZM236.976 26.6058V27.6058H237.743L237.942 26.8655L236.976 26.6058ZM210.538 26.8655L212.93 17.9735L210.998 17.454L208.606 26.346L210.538 26.8655ZM211.964 18.7138L239.368 18.7138V16.7138L211.964 16.7138V18.7138ZM238.402 17.454L236.01 26.346L237.942 26.8655L240.334 17.9735L238.402 17.454ZM236.976 25.6058H209.572V27.6058H236.976V25.6058ZM245.722 13.9178L246.595 14.4053L246.597 14.4005L245.722 13.9178ZM252.17 6.89776L251.599 6.07664L251.594 6.07996L252.17 6.89776ZM293.822 3.82976L293.36 4.71662L293.363 4.71819L293.822 3.82976ZM300.426 13.2418L300.623 14.2222L301.475 14.051L301.424 13.183L300.426 13.2418ZM288.518 15.6338L287.52 15.7003L287.596 16.8389L288.715 16.6142L288.518 15.6338ZM285.086 11.0058L284.65 11.906L284.662 11.9116L285.086 11.0058ZM263.974 11.1618L264.33 12.0963L264.339 12.0925L263.974 11.1618ZM257.526 15.5818L256.728 14.9794L256.726 14.9818L257.526 15.5818ZM258.878 27.4378L258.344 28.2836L258.352 28.2883L258.359 28.293L258.878 27.4378ZM279.782 27.9578L279.415 27.0276L279.41 27.0293L279.782 27.9578ZM285.814 23.1218L286.011 22.1414L285.338 22.0061L284.97 22.5858L285.814 23.1218ZM297.202 25.4098L298.088 25.8738L298.707 24.6921L297.399 24.4294L297.202 25.4098ZM291.17 32.6378L290.563 31.8431L290.557 31.8472L291.17 32.6378ZM281.81 36.9538L282.05 37.9245L282.059 37.9223L281.81 36.9538ZM249.778 34.2498L249.231 35.0871L249.234 35.0891L249.778 34.2498ZM244.486 22.6018C244.486 19.6488 245.189 16.9225 246.595 14.4053L244.849 13.4302C243.273 16.2517 242.486 19.3147 242.486 22.6018H244.486ZM246.597 14.4005C248.007 11.8439 250.047 9.61405 252.745 7.71557L251.594 6.07996C248.676 8.13348 246.418 10.5837 244.846 13.435L246.597 14.4005ZM252.74 7.71887C255.474 5.81907 258.798 4.319 262.732 3.23375L262.2 1.30577C258.091 2.43918 254.551 4.02445 251.599 6.07665L252.74 7.71887ZM262.732 3.23375C266.65 2.15291 271.116 1.60576 276.142 1.60576V-0.39424C270.975 -0.39424 266.324 0.167947 262.2 1.30577L262.732 3.23375ZM276.142 1.60576C283.734 1.60576 289.441 2.67488 293.36 4.71661L294.284 2.94291C289.952 0.685971 283.872 -0.39424 276.142 -0.39424V1.60576ZM293.363 4.71819C297.259 6.73128 299.209 9.58018 299.427 13.3005L301.424 13.183C301.158 8.65267 298.704 5.2269 294.281 2.94134L293.363 4.71819ZM300.229 12.2613L288.321 14.6533L288.715 16.6142L300.623 14.2222L300.229 12.2613ZM289.516 15.5672C289.349 13.0668 287.933 11.2338 285.509 10.1L284.662 11.9116C286.537 12.7884 287.409 14.0408 287.52 15.7003L289.516 15.5672ZM285.521 10.1056C283.164 8.96478 279.667 8.44576 275.154 8.44576V10.4458C279.584 10.4458 282.709 10.9667 284.65 11.9059L285.521 10.1056ZM275.154 8.44576C270.539 8.44576 266.677 9.02554 263.608 10.231L264.339 12.0925C267.095 11.01 270.686 10.4458 275.154 10.4458V8.44576ZM263.618 10.2273C260.59 11.3806 258.261 12.9477 256.728 14.9794L258.324 16.1842C259.564 14.5411 261.533 13.1616 264.33 12.0962L263.618 10.2273ZM256.726 14.9818C255.258 16.939 254.498 19.0699 254.498 21.3538H256.498C256.498 19.5469 257.09 17.8299 258.326 16.1818L256.726 14.9818ZM254.498 21.3538C254.498 24.3364 255.804 26.6816 258.344 28.2836L259.411 26.592C257.444 25.3513 256.498 23.6405 256.498 21.3538H254.498ZM258.359 28.293C260.887 29.8247 264.719 30.5178 269.694 30.5178V28.5178C264.823 28.5178 261.445 27.8241 259.396 26.5826L258.359 28.293ZM269.694 30.5178C273.891 30.5178 277.393 29.9903 280.153 28.8862L279.41 27.0293C276.97 28.0052 273.747 28.5178 269.694 28.5178V30.5178ZM280.149 28.8879C282.961 27.778 285.147 26.0373 286.658 23.6578L284.97 22.5858C283.707 24.5742 281.872 26.0575 279.415 27.0276L280.149 28.8879ZM285.617 24.1022L297.005 26.3902L297.399 24.4294L286.011 22.1414L285.617 24.1022ZM296.316 24.9458C294.855 27.7347 292.937 30.0291 290.563 31.8431L291.777 33.4324C294.394 31.4331 296.498 28.9088 298.088 25.8738L296.316 24.9458ZM290.557 31.8472C288.227 33.6521 285.24 35.0402 281.561 35.9852L282.059 37.9223C285.937 36.926 289.189 35.4367 291.782 33.4283L290.557 31.8472ZM281.569 35.9831C277.893 36.8937 273.386 37.3578 268.03 37.3578V39.3578C273.49 39.3578 278.169 38.8858 282.05 37.9244L281.569 35.9831ZM268.03 37.3578C260.182 37.3578 254.32 36 250.321 33.4104L249.234 35.0891C253.694 37.9769 260 39.3578 268.03 39.3578V37.3578ZM250.324 33.4124C246.414 30.8592 244.486 27.2921 244.486 22.6018H242.486C242.486 27.9648 244.752 32.163 249.231 35.0871L250.324 33.4124ZM314.953 37.6818L313.987 37.4223L313.649 38.6818H314.953V37.6818ZM318.697 23.7458L319.663 24.0052L319.783 23.5568L319.519 23.1754L318.697 23.7458ZM303.097 1.28176V0.28176L301.185 0.28176L302.276 1.85216L303.097 1.28176ZM316.721 1.28176L317.546 0.715628L317.248 0.28176H316.721V1.28176ZM326.185 15.0618L325.361 15.6279L325.985 16.5369L326.829 15.827L326.185 15.0618ZM342.565 1.28176V0.28176H342.201L341.921 0.516534L342.565 1.28176ZM357.593 1.28176L358.238 2.04607L360.329 0.28176H357.593V1.28176ZM329.981 24.5778L329.336 23.8134L329.097 24.0152L329.016 24.3172L329.981 24.5778ZM326.445 37.6818V38.6818H327.211L327.411 37.9423L326.445 37.6818ZM315.919 37.9412L319.663 24.0052L317.731 23.4863L313.987 37.4223L315.919 37.9412ZM319.519 23.1754L303.919 0.711364L302.276 1.85216L317.876 24.3162L319.519 23.1754ZM303.097 2.28176H316.721V0.28176H303.097V2.28176ZM315.897 1.84789L325.361 15.6279L327.01 14.4956L317.546 0.715628L315.897 1.84789ZM326.829 15.827L343.209 2.04699L341.921 0.516534L325.541 14.2965L326.829 15.827ZM342.565 2.28176H357.593V0.28176H342.565V2.28176ZM356.948 0.517447L329.336 23.8134L330.626 25.3421L358.238 2.04607L356.948 0.517447ZM329.016 24.3172L325.48 37.4212L327.411 37.9423L330.947 24.8383L329.016 24.3172ZM326.445 36.6818L314.953 36.6818V38.6818L326.445 38.6818V36.6818ZM355.917 13.9178L356.79 14.4053L356.793 14.4005L355.917 13.9178ZM362.365 6.89776L361.794 6.07664L361.79 6.07996L362.365 6.89776ZM404.017 3.82976L403.555 4.71662L403.558 4.71819L404.017 3.82976ZM410.621 13.2418L410.818 14.2222L411.67 14.051L411.619 13.183L410.621 13.2418ZM398.713 15.6338L397.715 15.7003L397.791 16.8389L398.91 16.6142L398.713 15.6338ZM395.281 11.0058L394.845 11.906L394.857 11.9116L395.281 11.0058ZM374.169 11.1618L374.525 12.0963L374.535 12.0925L374.169 11.1618ZM367.721 15.5818L366.923 14.9794L366.921 14.9818L367.721 15.5818ZM369.073 27.4378L368.54 28.2836L368.547 28.2883L368.555 28.293L369.073 27.4378ZM389.977 27.9578L389.61 27.0276L389.606 27.0293L389.977 27.9578ZM396.009 23.1218L396.206 22.1414L395.533 22.0061L395.165 22.5858L396.009 23.1218ZM407.397 25.4098L408.283 25.8738L408.902 24.6921L407.594 24.4294L407.397 25.4098ZM401.365 32.6378L400.758 31.8431L400.753 31.8472L401.365 32.6378ZM392.005 36.9538L392.245 37.9245L392.254 37.9223L392.005 36.9538ZM359.973 34.2498L359.426 35.0871L359.429 35.0891L359.973 34.2498ZM354.681 22.6018C354.681 19.6488 355.384 16.9225 356.79 14.4053L355.044 13.4302C353.468 16.2517 352.681 19.3147 352.681 22.6018H354.681ZM356.793 14.4005C358.202 11.8439 360.243 9.61405 362.941 7.71557L361.79 6.07996C358.871 8.13348 356.613 10.5837 355.041 13.435L356.793 14.4005ZM362.936 7.71887C365.669 5.81907 368.993 4.319 372.927 3.23375L372.395 1.30577C368.286 2.43918 364.747 4.02445 361.794 6.07665L362.936 7.71887ZM372.927 3.23375C376.845 2.15291 381.312 1.60576 386.337 1.60576V-0.39424C381.17 -0.39424 376.52 0.167947 372.395 1.30577L372.927 3.23375ZM386.337 1.60576C393.93 1.60576 399.636 2.67488 403.555 4.71661L404.479 2.94291C400.147 0.685971 394.067 -0.39424 386.337 -0.39424V1.60576ZM403.558 4.71819C407.454 6.73128 409.404 9.58018 409.623 13.3005L411.619 13.183C411.353 8.65267 408.9 5.2269 404.476 2.94134L403.558 4.71819ZM410.424 12.2613L398.516 14.6533L398.91 16.6142L410.818 14.2222L410.424 12.2613ZM399.711 15.5672C399.544 13.0668 398.129 11.2338 395.705 10.1L394.857 11.9116C396.732 12.7884 397.605 14.0408 397.715 15.7003L399.711 15.5672ZM395.717 10.1056C393.359 8.96478 389.862 8.44576 385.349 8.44576V10.4458C389.78 10.4458 392.905 10.9667 394.845 11.9059L395.717 10.1056ZM385.349 8.44576C380.734 8.44576 376.872 9.02554 373.803 10.231L374.535 12.0925C377.29 11.01 380.881 10.4458 385.349 10.4458V8.44576ZM373.813 10.2273C370.786 11.3806 368.456 12.9477 366.923 14.9794L368.519 16.1842C369.759 14.5411 371.728 13.1616 374.525 12.0962L373.813 10.2273ZM366.921 14.9818C365.453 16.939 364.693 19.0699 364.693 21.3538H366.693C366.693 19.5469 367.285 17.8299 368.521 16.1818L366.921 14.9818ZM364.693 21.3538C364.693 24.3364 366 26.6816 368.54 28.2836L369.607 26.592C367.64 25.3513 366.693 23.6405 366.693 21.3538H364.693ZM368.555 28.293C371.082 29.8247 374.914 30.5178 379.889 30.5178V28.5178C375.018 28.5178 371.64 27.8241 369.591 26.5826L368.555 28.293ZM379.889 30.5178C384.087 30.5178 387.588 29.9903 390.348 28.8862L389.606 27.0293C387.166 28.0052 383.942 28.5178 379.889 28.5178V30.5178ZM390.344 28.8879C393.156 27.778 395.342 26.0373 396.853 23.6578L395.165 22.5858C393.902 24.5742 392.067 26.0575 389.61 27.0276L390.344 28.8879ZM395.812 24.1022L407.2 26.3902L407.594 24.4294L396.206 22.1414L395.812 24.1022ZM406.511 24.9458C405.05 27.7347 403.133 30.0291 400.758 31.8431L401.972 33.4324C404.589 31.4331 406.693 28.9088 408.283 25.8738L406.511 24.9458ZM400.753 31.8472C398.423 33.6521 395.435 35.0402 391.756 35.9852L392.254 37.9223C396.132 36.926 399.385 35.4367 401.977 33.4283L400.753 31.8472ZM391.765 35.9831C388.088 36.8937 383.581 37.3578 378.225 37.3578V39.3578C383.685 39.3578 388.364 38.8858 392.245 37.9244L391.765 35.9831ZM378.225 37.3578C370.377 37.3578 364.516 36 360.517 33.4104L359.429 35.0891C363.889 37.9769 370.195 39.3578 378.225 39.3578V37.3578ZM360.52 33.4124C356.609 30.8592 354.681 27.2921 354.681 22.6018H352.681C352.681 27.9648 354.948 32.163 359.426 35.0871L360.52 33.4124ZM411.991 37.6818L411.025 37.4224L410.687 38.6818H411.991V37.6818ZM421.767 1.28176V0.28176H421L420.801 1.02238L421.767 1.28176ZM433.259 1.28176L434.225 1.54056L434.562 0.28176H433.259V1.28176ZM425.875 28.8418L424.909 28.583L424.572 29.8418H425.875V28.8418ZM454.839 28.8418L455.804 29.103L456.145 27.8418H454.839V28.8418ZM452.447 37.6818V38.6818H453.212L453.412 37.943L452.447 37.6818ZM412.957 37.9411L422.733 1.54114L420.801 1.02238L411.025 37.4224L412.957 37.9411ZM421.767 2.28176L433.259 2.28176V0.28176L421.767 0.28176V2.28176ZM432.293 1.02296L424.909 28.583L426.841 29.1006L434.225 1.54056L432.293 1.02296ZM425.875 29.8418L454.839 29.8418V27.8418L425.875 27.8418V29.8418ZM453.874 28.5806L451.482 37.4206L453.412 37.943L455.804 29.103L453.874 28.5806ZM452.447 36.6818L411.991 36.6818V38.6818L452.447 38.6818V36.6818ZM460.182 37.6818L459.217 37.4224L458.878 38.6818H460.182V37.6818ZM469.958 1.28176V0.28176H469.191L468.993 1.02238L469.958 1.28176ZM515.77 1.28176L516.736 1.54019L517.073 0.28176H515.77V1.28176ZM513.586 9.44576V10.4458H514.354L514.552 9.70419L513.586 9.44576ZM478.902 9.44576V8.44576L478.135 8.44576L477.937 9.18643L478.902 9.44576ZM477.394 15.0618L476.429 14.8024L476.09 16.0618H477.394V15.0618ZM508.49 15.0618L509.456 15.3217L509.795 14.0618H508.49V15.0618ZM506.306 23.1738V24.1738H507.073L507.272 23.4337L506.306 23.1738ZM475.262 23.1738V22.1738H474.497L474.297 22.9127L475.262 23.1738ZM473.546 29.5178L472.581 29.2567L472.24 30.5178H473.546V29.5178ZM508.594 29.5178L509.56 29.7762L509.897 28.5178H508.594V29.5178ZM506.41 37.6818V38.6818H507.178L507.376 37.9402L506.41 37.6818ZM461.148 37.9411L470.924 1.54114L468.993 1.02238L459.217 37.4224L461.148 37.9411ZM469.958 2.28176L515.77 2.28176V0.28176L469.958 0.28176V2.28176ZM514.804 1.02333L512.62 9.18733L514.552 9.70419L516.736 1.54019L514.804 1.02333ZM513.586 8.44576H478.902V10.4458H513.586V8.44576ZM477.937 9.18643L476.429 14.8024L478.36 15.3211L479.868 9.70509L477.937 9.18643ZM477.394 16.0618L508.49 16.0618V14.0618L477.394 14.0618V16.0618ZM507.525 14.8018L505.341 22.9138L507.272 23.4337L509.456 15.3217L507.525 14.8018ZM506.306 22.1738H475.262V24.1738H506.306V22.1738ZM474.297 22.9127L472.581 29.2567L474.512 29.7789L476.228 23.4349L474.297 22.9127ZM473.546 30.5178H508.594V28.5178H473.546V30.5178ZM507.628 29.2593L505.444 37.4233L507.376 37.9402L509.56 29.7762L507.628 29.2593ZM506.41 36.6818H460.182V38.6818H506.41V36.6818ZM530.819 37.6818L529.853 37.4224L529.515 38.6818H530.819V37.6818ZM540.595 1.28176V0.28176H539.828L539.629 1.02238L540.595 1.28176ZM586.407 1.28176L587.373 1.54019L587.71 0.28176H586.407V1.28176ZM584.223 9.44576V10.4458H584.991L585.189 9.70419L584.223 9.44576ZM549.539 9.44576V8.44576H548.772L548.573 9.18643L549.539 9.44576ZM548.031 15.0618L547.065 14.8024L546.727 16.0618H548.031V15.0618ZM579.127 15.0618L580.093 15.3217L580.432 14.0618H579.127V15.0618ZM576.943 23.1738V24.1738H577.709L577.909 23.4337L576.943 23.1738ZM545.899 23.1738V22.1738H545.134L544.934 22.9127L545.899 23.1738ZM544.183 29.5178L543.218 29.2567L542.877 30.5178H544.183V29.5178ZM579.231 29.5178L580.197 29.7762L580.534 28.5178H579.231V29.5178ZM577.047 37.6818V38.6818H577.815L578.013 37.9402L577.047 37.6818ZM531.785 37.9411L541.561 1.54114L539.629 1.02238L529.853 37.4224L531.785 37.9411ZM540.595 2.28176L586.407 2.28176V0.28176L540.595 0.28176V2.28176ZM585.441 1.02333L583.257 9.18733L585.189 9.70419L587.373 1.54019L585.441 1.02333ZM584.223 8.44576H549.539V10.4458H584.223V8.44576ZM548.573 9.18643L547.065 14.8024L548.997 15.3211L550.505 9.70509L548.573 9.18643ZM548.031 16.0618H579.127V14.0618H548.031V16.0618ZM578.161 14.8018L575.977 22.9138L577.909 23.4337L580.093 15.3217L578.161 14.8018ZM576.943 22.1738L545.899 22.1738V24.1738L576.943 24.1738V22.1738ZM544.934 22.9127L543.218 29.2567L545.148 29.7789L546.864 23.4349L544.934 22.9127ZM544.183 30.5178L579.231 30.5178V28.5178L544.183 28.5178V30.5178ZM578.265 29.2593L576.081 37.4233L578.013 37.9402L580.197 29.7762L578.265 29.2593ZM577.047 36.6818L530.819 36.6818V38.6818L577.047 38.6818V36.6818ZM601.946 1.28176L602.888 0.945913L602.651 0.28176H601.946V1.28176ZM610.994 26.6578L610.052 26.9936L610.616 28.5758L611.738 27.3257L610.994 26.6578ZM633.77 1.28176V0.28176H633.324L633.026 0.613807L633.77 1.28176ZM647.29 1.28176L648.034 1.94955L649.531 0.28176H647.29V1.28176ZM614.634 37.6818V38.6818H615.08L615.378 38.3496L614.634 37.6818ZM602.83 37.6818L601.89 38.0217L602.128 38.6818H602.83V37.6818ZM589.674 1.28176V0.28176H588.249L588.734 1.62167L589.674 1.28176ZM601.004 1.61761L610.052 26.9936L611.936 26.3219L602.888 0.945913L601.004 1.61761ZM611.738 27.3257L634.514 1.94971L633.026 0.613807L610.25 25.9898L611.738 27.3257ZM633.77 2.28176H647.29V0.28176H633.77V2.28176ZM646.546 0.613971L613.89 37.014L615.378 38.3496L648.034 1.94955L646.546 0.613971ZM614.634 36.6818H602.83V38.6818H614.634V36.6818ZM603.771 37.3419L590.615 0.941852L588.734 1.62167L601.89 38.0217L603.771 37.3419ZM589.674 2.28176L601.946 2.28176V0.28176L589.674 0.28176V2.28176ZM643.198 37.6818L642.232 37.4224L641.894 38.6818H643.198V37.6818ZM652.974 1.28176V0.28176H652.207L652.008 1.02238L652.974 1.28176ZM698.786 1.28176L699.752 1.54019L700.089 0.28176H698.786V1.28176ZM696.602 9.44576V10.4458H697.37L697.568 9.70419L696.602 9.44576ZM661.918 9.44576V8.44576H661.151L660.952 9.18643L661.918 9.44576ZM660.41 15.0618L659.444 14.8024L659.106 16.0618H660.41V15.0618ZM691.506 15.0618L692.472 15.3217L692.811 14.0618H691.506V15.0618ZM689.322 23.1738V24.1738H690.088L690.288 23.4337L689.322 23.1738ZM658.278 23.1738V22.1738H657.512L657.313 22.9127L658.278 23.1738ZM656.562 29.5178L655.597 29.2567L655.256 30.5178H656.562V29.5178ZM691.61 29.5178L692.576 29.7762L692.913 28.5178H691.61V29.5178ZM689.426 37.6818V38.6818H690.194L690.392 37.9402L689.426 37.6818ZM644.164 37.9411L653.94 1.54114L652.008 1.02238L642.232 37.4224L644.164 37.9411ZM652.974 2.28176L698.786 2.28176V0.28176L652.974 0.28176V2.28176ZM697.82 1.02333L695.636 9.18733L697.568 9.70419L699.752 1.54019L697.82 1.02333ZM696.602 8.44576L661.918 8.44576V10.4458L696.602 10.4458V8.44576ZM660.952 9.18643L659.444 14.8024L661.376 15.3211L662.884 9.70509L660.952 9.18643ZM660.41 16.0618L691.506 16.0618V14.0618L660.41 14.0618V16.0618ZM690.54 14.8018L688.356 22.9138L690.288 23.4337L692.472 15.3217L690.54 14.8018ZM689.322 22.1738H658.278V24.1738H689.322V22.1738ZM657.313 22.9127L655.597 29.2567L657.527 29.7789L659.243 23.4349L657.313 22.9127ZM656.562 30.5178H691.61V28.5178H656.562V30.5178ZM690.644 29.2593L688.46 37.4233L690.392 37.9402L692.576 29.7762L690.644 29.2593ZM689.426 36.6818H643.198V38.6818H689.426V36.6818ZM697.737 37.6818L696.771 37.4224L696.433 38.6818H697.737V37.6818ZM707.513 1.28176V0.28176H706.746L706.547 1.02238L707.513 1.28176ZM718.641 1.28176L719.387 0.616168L719.089 0.28176H718.641V1.28176ZM741.365 26.7618L740.619 27.4274L741.852 28.8106L742.331 27.02L741.365 26.7618ZM748.177 1.28176V0.28176H747.409L747.211 1.02348L748.177 1.28176ZM758.993 1.28176L759.959 1.53985L760.295 0.28176H758.993V1.28176ZM749.269 37.6818V38.6818H750.037L750.235 37.9399L749.269 37.6818ZM738.141 37.6818L737.395 38.3474L737.693 38.6818H738.141V37.6818ZM715.417 12.2018L716.163 11.5362L714.932 10.156L714.451 11.9416L715.417 12.2018ZM708.553 37.6818V38.6818H709.319L709.519 37.9419L708.553 37.6818ZM698.703 37.9411L708.479 1.54114L706.547 1.02238L696.771 37.4224L698.703 37.9411ZM707.513 2.28176L718.641 2.28176V0.28176L707.513 0.28176V2.28176ZM717.895 1.94735L740.619 27.4274L742.111 26.0962L719.387 0.616168L717.895 1.94735ZM742.331 27.02L749.143 1.54004L747.211 1.02348L740.399 26.5035L742.331 27.02ZM748.177 2.28176L758.993 2.28176V0.28176L748.177 0.28176V2.28176ZM758.027 1.02367L748.303 37.4237L750.235 37.9399L759.959 1.53985L758.027 1.02367ZM749.269 36.6818H738.141V38.6818H749.269V36.6818ZM738.887 37.0162L716.163 11.5362L714.671 12.8674L737.395 38.3474L738.887 37.0162ZM714.451 11.9416L707.587 37.4216L709.519 37.9419L716.383 12.4619L714.451 11.9416ZM708.553 36.6818L697.737 36.6818V38.6818L708.553 38.6818V36.6818ZM775.691 37.6818L774.726 37.423L774.388 38.6818H775.691V37.6818ZM783.075 10.1218L784.041 10.3806L784.379 9.12176H783.075V10.1218ZM763.627 10.1218L762.662 9.86057L762.321 11.1218H763.627V10.1218ZM766.019 1.28176V0.28176H765.254L765.054 1.02057L766.019 1.28176ZM816.408 1.28176L817.373 1.54296L817.714 0.28176H816.408V1.28176ZM814.016 10.1218V11.1218H814.781L814.981 10.383L814.016 10.1218ZM794.567 10.1218V9.12176H793.8L793.602 9.86296L794.567 10.1218ZM787.183 37.6818V38.6818H787.951L788.149 37.9406L787.183 37.6818ZM776.657 37.9406L784.041 10.3806L782.11 9.86296L774.726 37.423L776.657 37.9406ZM783.075 9.12176H763.627V11.1218H783.075V9.12176ZM764.593 10.383L766.985 1.54296L765.054 1.02057L762.662 9.86057L764.593 10.383ZM766.019 2.28176L816.408 2.28176V0.28176L766.019 0.28176V2.28176ZM815.442 1.02057L813.05 9.86057L814.981 10.383L817.373 1.54296L815.442 1.02057ZM814.016 9.12176L794.567 9.12176V11.1218L814.016 11.1218V9.12176ZM793.602 9.86296L786.218 37.423L788.149 37.9406L795.533 10.3806L793.602 9.86296ZM787.183 36.6818H775.691V38.6818H787.183V36.6818ZM872.72 37.6818L871.786 38.0378L872.031 38.6818H872.72V37.6818ZM870.224 31.1298L871.159 30.7738L870.913 30.1298H870.224V31.1298ZM843.756 31.1298V30.1298H843.318L843.021 30.4525L843.756 31.1298ZM837.724 37.6818V38.6818H838.163L838.46 38.3591L837.724 37.6818ZM824.256 37.6818L823.527 36.998L821.949 38.6818H824.256V37.6818ZM858.368 1.28176V0.28176H857.935L857.639 0.597958L858.368 1.28176ZM870.172 1.28176L871.1 0.909227L870.848 0.28176H870.172V1.28176ZM884.784 37.6818V38.6818H886.263L885.712 37.3092L884.784 37.6818ZM851.348 22.9138L850.613 22.2359L849.066 23.9138H851.348V22.9138ZM867.052 22.9138V23.9138H868.509L867.985 22.5542L867.052 22.9138ZM862.424 10.9018L863.357 10.5422L862.779 9.04161L861.689 10.2239L862.424 10.9018ZM873.655 37.3258L871.159 30.7738L869.29 31.4858L871.786 38.0378L873.655 37.3258ZM870.224 30.1298H843.756V32.1298H870.224V30.1298ZM843.021 30.4525L836.989 37.0045L838.46 38.3591L844.492 31.8071L843.021 30.4525ZM837.724 36.6818L824.256 36.6818V38.6818L837.724 38.6818V36.6818ZM824.986 38.3656L859.098 1.96556L857.639 0.597958L823.527 36.998L824.986 38.3656ZM858.368 2.28176H870.172V0.28176H858.368V2.28176ZM869.244 1.65429L883.856 38.0543L885.712 37.3092L871.1 0.909227L869.244 1.65429ZM884.784 36.6818H872.72V38.6818H884.784V36.6818ZM851.348 23.9138H867.052V21.9138H851.348V23.9138ZM867.985 22.5542L863.357 10.5422L861.491 11.2613L866.119 23.2733L867.985 22.5542ZM861.689 10.2239L850.613 22.2359L852.083 23.5916L863.159 11.5796L861.689 10.2239ZM891.457 13.8658L890.584 13.3782L890.584 13.3782L891.457 13.8658ZM897.905 6.89776L897.335 6.07664L897.33 6.07996L897.905 6.89776ZM939.557 3.72576L939.107 4.61868L939.107 4.61868L939.557 3.72576ZM946.161 12.8778L946.353 13.8592L947.22 13.6896L947.159 12.809L946.161 12.8778ZM934.201 15.2178L933.204 15.289L933.284 16.4161L934.393 16.1992L934.201 15.2178ZM930.769 10.9018L930.352 11.8106L930.361 11.8147L930.37 11.8186L930.769 10.9018ZM909.657 11.1618L910.013 12.0963L910.023 12.0925L909.657 11.1618ZM903.209 15.5818L902.411 14.9794L902.409 14.9818L903.209 15.5818ZM904.717 27.4378L904.201 28.2941L904.208 28.2986L904.216 28.3029L904.717 27.4378ZM926.037 28.3738L926.299 29.3388L926.299 29.3388L926.037 28.3738ZM932.693 24.7338L933.408 25.4334L935.072 23.7338H932.693V24.7338ZM916.469 24.7338L915.503 24.4757L915.167 25.7338H916.469V24.7338ZM918.497 17.1418V16.1418H917.729L917.531 16.8837L918.497 17.1418ZM946.889 17.1418L947.855 17.4009L948.193 16.1418H946.889V17.1418ZM941.377 37.6818V38.6818H942.144L942.343 37.9409L941.377 37.6818ZM932.537 37.6818L931.542 37.5814L931.431 38.6818H932.537V37.6818ZM933.161 31.4938L934.156 31.5941L934.408 29.093L932.507 30.7374L933.161 31.4938ZM923.957 36.5898L923.644 35.6402L923.641 35.6411L923.957 36.5898ZM894.785 34.2498L894.186 35.0507L894.195 35.0569L894.785 34.2498ZM890.221 22.5498C890.221 19.5968 890.925 16.8705 892.33 14.3533L890.584 13.3782C889.009 16.1997 888.221 19.2627 888.221 22.5498H890.221ZM892.33 14.3533C893.739 11.8303 895.78 9.61591 898.481 7.71557L897.33 6.07996C894.414 8.13161 892.157 10.5625 890.584 13.3782L892.33 14.3533ZM898.476 7.71887C901.209 5.81907 904.533 4.319 908.467 3.23375L907.935 1.30577C903.827 2.43918 900.287 4.02445 897.335 6.07665L898.476 7.71887ZM908.467 3.23375C912.385 2.15291 916.852 1.60576 921.877 1.60576V-0.39424C916.711 -0.39424 912.06 0.167947 907.935 1.30577L908.467 3.23375ZM921.877 1.60576C929.473 1.60576 935.184 2.64088 939.107 4.61868L940.008 2.83284C935.68 0.650644 929.604 -0.39424 921.877 -0.39424V1.60576ZM939.107 4.61868C942.972 6.56747 944.915 9.33455 945.164 12.9466L947.159 12.809C946.853 8.3783 944.393 5.04405 940.008 2.83284L939.107 4.61868ZM945.969 11.8964L934.009 14.2364L934.393 16.1992L946.353 13.8592L945.969 11.8964ZM935.199 15.1465C935.028 12.7508 933.575 11.033 931.169 9.98493L930.37 11.8186C932.262 12.6425 933.098 13.802 933.204 15.289L935.199 15.1465ZM931.186 9.99293C928.868 8.9289 925.378 8.44576 920.837 8.44576V10.4458C925.31 10.4458 928.441 10.9333 930.352 11.8106L931.186 9.99293ZM920.837 8.44576C916.222 8.44576 912.36 9.02554 909.292 10.231L910.023 12.0925C912.779 11.01 916.369 10.4458 920.837 10.4458V8.44576ZM909.301 10.2273C906.274 11.3806 903.944 12.9477 902.411 14.9794L904.007 16.1842C905.248 14.5411 907.217 13.1616 910.013 12.0962L909.301 10.2273ZM902.409 14.9818C900.941 16.939 900.181 19.0699 900.181 21.3538H902.181C902.181 19.5469 902.773 17.8299 904.009 16.1818L902.409 14.9818ZM900.181 21.3538C900.181 24.3577 901.56 26.7017 904.201 28.2941L905.234 26.5814C903.16 25.3311 902.181 23.6192 902.181 21.3538H900.181ZM904.216 28.3029C906.837 29.8227 910.709 30.5178 915.689 30.5178V28.5178C910.824 28.5178 907.381 27.8261 905.219 26.5726L904.216 28.3029ZM915.689 30.5178C919.836 30.5178 923.379 30.1319 926.299 29.3388L925.775 27.4087C923.079 28.1409 919.724 28.5178 915.689 28.5178V30.5178ZM926.299 29.3388C929.237 28.541 931.626 27.2526 933.408 25.4334L931.979 24.0341C930.501 25.5429 928.454 26.6812 925.775 27.4087L926.299 29.3388ZM932.693 23.7338H916.469V25.7338H932.693V23.7338ZM917.435 24.9918L919.463 17.3998L917.531 16.8837L915.503 24.4757L917.435 24.9918ZM918.497 18.1418L946.889 18.1418V16.1418L918.497 16.1418V18.1418ZM945.923 16.8826L940.411 37.4226L942.343 37.9409L947.855 17.4009L945.923 16.8826ZM941.377 36.6818H932.537V38.6818H941.377V36.6818ZM933.532 37.7821L934.156 31.5941L932.166 31.3934L931.542 37.5814L933.532 37.7821ZM932.507 30.7374C930.052 32.8609 927.103 34.4983 923.644 35.6402L924.271 37.5394C927.953 36.3239 931.14 34.5639 933.815 32.2501L932.507 30.7374ZM923.641 35.6411C920.222 36.7807 916.396 37.3578 912.153 37.3578V39.3578C916.577 39.3578 920.621 38.7561 924.274 37.5384L923.641 35.6411ZM912.153 37.3578C904.399 37.3578 898.866 35.9957 895.376 33.4426L894.195 35.0569C898.193 37.9811 904.238 39.3578 912.153 39.3578V37.3578ZM895.384 33.4489C891.951 30.8822 890.221 27.2923 890.221 22.5498H888.221C888.221 27.8605 890.201 32.0706 894.187 35.0507L895.384 33.4489ZM950.983 37.6818L950.017 37.4224L949.679 38.6818H950.983V37.6818ZM960.759 1.28176V0.28176H959.992L959.793 1.02238L960.759 1.28176ZM1006.57 1.28176L1007.54 1.54019L1007.87 0.28176H1006.57V1.28176ZM1004.39 9.44576V10.4458H1005.15L1005.35 9.70419L1004.39 9.44576ZM969.703 9.44576V8.44576H968.936L968.737 9.18643L969.703 9.44576ZM968.195 15.0618L967.229 14.8024L966.891 16.0618H968.195V15.0618ZM999.291 15.0618L1000.26 15.3217L1000.6 14.0618H999.291V15.0618ZM997.107 23.1738V24.1738H997.873L998.073 23.4337L997.107 23.1738ZM966.063 23.1738V22.1738H965.298L965.098 22.9127L966.063 23.1738ZM964.347 29.5178L963.382 29.2567L963.041 30.5178H964.347V29.5178ZM999.395 29.5178L1000.36 29.7762L1000.7 28.5178H999.395V29.5178ZM997.211 37.6818V38.6818H997.979L998.177 37.9402L997.211 37.6818ZM951.949 37.9411L961.725 1.54114L959.793 1.02238L950.017 37.4224L951.949 37.9411ZM960.759 2.28176L1006.57 2.28176V0.28176L960.759 0.28176V2.28176ZM1005.61 1.02333L1003.42 9.18733L1005.35 9.70419L1007.54 1.54019L1005.61 1.02333ZM1004.39 8.44576L969.703 8.44576V10.4458L1004.39 10.4458V8.44576ZM968.737 9.18643L967.229 14.8024L969.161 15.3211L970.669 9.70509L968.737 9.18643ZM968.195 16.0618L999.291 16.0618V14.0618L968.195 14.0618V16.0618ZM998.325 14.8018L996.141 22.9138L998.073 23.4337L1000.26 15.3217L998.325 14.8018ZM997.107 22.1738H966.063V24.1738H997.107V22.1738ZM965.098 22.9127L963.382 29.2567L965.312 29.7789L967.028 23.4349L965.098 22.9127ZM964.347 30.5178H999.395V28.5178H964.347V30.5178ZM998.429 29.2593L996.245 37.4233L998.177 37.9402L1000.36 29.7762L998.429 29.2593ZM997.211 36.6818L950.983 36.6818V38.6818L997.211 38.6818V36.6818ZM1005.52 37.6818L1004.56 37.4224L1004.22 38.6818H1005.52V37.6818ZM1015.3 1.28176V0.28176H1014.53L1014.33 1.02238L1015.3 1.28176ZM1026.43 1.28176L1027.17 0.616168L1026.87 0.28176H1026.43V1.28176ZM1049.15 26.7618L1048.4 27.4274L1049.64 28.8106L1050.12 27.02L1049.15 26.7618ZM1055.96 1.28176V0.28176H1055.19L1055 1.02348L1055.96 1.28176ZM1066.78 1.28176L1067.74 1.53985L1068.08 0.28176H1066.78V1.28176ZM1057.05 37.6818V38.6818H1057.82L1058.02 37.9399L1057.05 37.6818ZM1045.93 37.6818L1045.18 38.3474L1045.48 38.6818H1045.93V37.6818ZM1023.2 12.2018L1023.95 11.5362L1022.72 10.156L1022.24 11.9416L1023.2 12.2018ZM1016.34 37.6818V38.6818H1017.1L1017.3 37.9419L1016.34 37.6818ZM1006.49 37.9411L1016.26 1.54114L1014.33 1.02238L1004.56 37.4224L1006.49 37.9411ZM1015.3 2.28176H1026.43V0.28176H1015.3V2.28176ZM1025.68 1.94735L1048.4 27.4274L1049.9 26.0962L1027.17 0.616168L1025.68 1.94735ZM1050.12 27.02L1056.93 1.54004L1055 1.02348L1048.18 26.5035L1050.12 27.02ZM1055.96 2.28176H1066.78V0.28176H1055.96V2.28176ZM1065.81 1.02367L1056.09 37.4237L1058.02 37.9399L1067.74 1.53985L1065.81 1.02367ZM1057.05 36.6818H1045.93V38.6818H1057.05V36.6818ZM1046.67 37.0162L1023.95 11.5362L1022.46 12.8674L1045.18 38.3474L1046.67 37.0162ZM1022.24 11.9416L1015.37 37.4216L1017.3 37.9419L1024.17 12.4619L1022.24 11.9416ZM1016.34 36.6818H1005.52V38.6818H1016.34V36.6818ZM1071.93 13.9178L1072.81 14.4053L1072.81 14.4005L1071.93 13.9178ZM1078.38 6.89776L1077.81 6.07664L1077.81 6.07996L1078.38 6.89776ZM1120.03 3.82976L1119.57 4.71662L1119.57 4.71819L1120.03 3.82976ZM1126.64 13.2418L1126.83 14.2222L1127.69 14.051L1127.63 13.183L1126.64 13.2418ZM1114.73 15.6338L1113.73 15.7003L1113.81 16.8389L1114.93 16.6142L1114.73 15.6338ZM1111.3 11.0058L1110.86 11.906L1110.87 11.9116L1111.3 11.0058ZM1090.18 11.1618L1090.54 12.0963L1090.55 12.0925L1090.18 11.1618ZM1083.74 15.5818L1082.94 14.9794L1082.94 14.9818L1083.74 15.5818ZM1085.09 27.4378L1084.56 28.2836L1084.56 28.2883L1084.57 28.293L1085.09 27.4378ZM1105.99 27.9578L1105.63 27.0276L1105.62 27.0293L1105.99 27.9578ZM1112.02 23.1218L1112.22 22.1414L1111.55 22.0061L1111.18 22.5858L1112.02 23.1218ZM1123.41 25.4098L1124.3 25.8738L1124.92 24.6921L1123.61 24.4294L1123.41 25.4098ZM1117.38 32.6378L1116.77 31.8431L1116.77 31.8472L1117.38 32.6378ZM1108.02 36.9538L1108.26 37.9245L1108.27 37.9223L1108.02 36.9538ZM1075.99 34.2498L1075.44 35.0871L1075.45 35.0891L1075.99 34.2498ZM1070.7 22.6018C1070.7 19.6488 1071.4 16.9225 1072.81 14.4053L1071.06 13.4302C1069.48 16.2517 1068.7 19.3147 1068.7 22.6018H1070.7ZM1072.81 14.4005C1074.22 11.8439 1076.26 9.61405 1078.96 7.71557L1077.81 6.07996C1074.89 8.13348 1072.63 10.5837 1071.06 13.435L1072.81 14.4005ZM1078.95 7.71887C1081.68 5.81907 1085.01 4.319 1088.94 3.23375L1088.41 1.30577C1084.3 2.43918 1080.76 4.02445 1077.81 6.07665L1078.95 7.71887ZM1088.94 3.23375C1092.86 2.15291 1097.33 1.60576 1102.35 1.60576V-0.39424C1097.19 -0.39424 1092.54 0.167947 1088.41 1.30577L1088.94 3.23375ZM1102.35 1.60576C1109.95 1.60576 1115.65 2.67488 1119.57 4.71661L1120.49 2.94291C1116.16 0.685971 1110.08 -0.39424 1102.35 -0.39424V1.60576ZM1119.57 4.71819C1123.47 6.73128 1125.42 9.58018 1125.64 13.3005L1127.63 13.183C1127.37 8.65267 1124.92 5.2269 1120.49 2.94134L1119.57 4.71819ZM1126.44 12.2613L1114.53 14.6533L1114.93 16.6142L1126.83 14.2222L1126.44 12.2613ZM1115.73 15.5672C1115.56 13.0668 1114.14 11.2338 1111.72 10.1L1110.87 11.9116C1112.75 12.7884 1113.62 14.0408 1113.73 15.7003L1115.73 15.5672ZM1111.73 10.1056C1109.37 8.96478 1105.88 8.44576 1101.36 8.44576V10.4458C1105.8 10.4458 1108.92 10.9667 1110.86 11.9059L1111.73 10.1056ZM1101.36 8.44576C1096.75 8.44576 1092.89 9.02554 1089.82 10.231L1090.55 12.0925C1093.31 11.01 1096.9 10.4458 1101.36 10.4458V8.44576ZM1089.83 10.2273C1086.8 11.3806 1084.47 12.9477 1082.94 14.9794L1084.53 16.1842C1085.77 14.5411 1087.74 13.1616 1090.54 12.0962L1089.83 10.2273ZM1082.94 14.9818C1081.47 16.939 1080.71 19.0699 1080.71 21.3538H1082.71C1082.71 19.5469 1083.3 17.8299 1084.54 16.1818L1082.94 14.9818ZM1080.71 21.3538C1080.71 24.3364 1082.02 26.6816 1084.56 28.2836L1085.62 26.592C1083.66 25.3513 1082.71 23.6405 1082.71 21.3538H1080.71ZM1084.57 28.293C1087.1 29.8247 1090.93 30.5178 1095.9 30.5178V28.5178C1091.03 28.5178 1087.66 27.8241 1085.61 26.5826L1084.57 28.293ZM1095.9 30.5178C1100.1 30.5178 1103.6 29.9903 1106.36 28.8862L1105.62 27.0293C1103.18 28.0052 1099.96 28.5178 1095.9 28.5178V30.5178ZM1106.36 28.8879C1109.17 27.778 1111.36 26.0373 1112.87 23.6578L1111.18 22.5858C1109.92 24.5742 1108.08 26.0575 1105.63 27.0276L1106.36 28.8879ZM1111.83 24.1022L1123.22 26.3902L1123.61 24.4294L1112.22 22.1414L1111.83 24.1022ZM1122.53 24.9458C1121.07 27.7347 1119.15 30.0291 1116.77 31.8431L1117.99 33.4324C1120.61 31.4331 1122.71 28.9088 1124.3 25.8738L1122.53 24.9458ZM1116.77 31.8472C1114.44 33.6521 1111.45 35.0402 1107.77 35.9852L1108.27 37.9223C1112.15 36.926 1115.4 35.4367 1117.99 33.4283L1116.77 31.8472ZM1107.78 35.9831C1104.1 36.8937 1099.6 37.3578 1094.24 37.3578V39.3578C1099.7 39.3578 1104.38 38.8858 1108.26 37.9244L1107.78 35.9831ZM1094.24 37.3578C1086.39 37.3578 1080.53 36 1076.53 33.4104L1075.45 35.0891C1079.9 37.9769 1086.21 39.3578 1094.24 39.3578V37.3578ZM1076.54 33.4124C1072.62 30.8592 1070.7 27.2921 1070.7 22.6018H1068.7C1068.7 27.9648 1070.96 32.163 1075.44 35.0871L1076.54 33.4124ZM1141.16 37.6818L1140.2 37.4223L1139.86 38.6818H1141.16V37.6818ZM1144.91 23.7458L1145.87 24.0052L1145.99 23.5568L1145.73 23.1754L1144.91 23.7458ZM1129.31 1.28176V0.28176H1127.4L1128.49 1.85216L1129.31 1.28176ZM1142.93 1.28176L1143.76 0.715628L1143.46 0.28176H1142.93V1.28176ZM1152.4 15.0618L1151.57 15.6279L1152.2 16.5369L1153.04 15.827L1152.4 15.0618ZM1168.78 1.28176V0.28176H1168.41L1168.13 0.516534L1168.78 1.28176ZM1183.8 1.28176L1184.45 2.04607L1186.54 0.28176H1183.8V1.28176ZM1156.19 24.5778L1155.55 23.8134L1155.31 24.0152L1155.23 24.3172L1156.19 24.5778ZM1152.66 37.6818V38.6818H1153.42L1153.62 37.9423L1152.66 37.6818ZM1142.13 37.9412L1145.87 24.0052L1143.94 23.4863L1140.2 37.4223L1142.13 37.9412ZM1145.73 23.1754L1130.13 0.711364L1128.49 1.85216L1144.09 24.3162L1145.73 23.1754ZM1129.31 2.28176L1142.93 2.28176V0.28176L1129.31 0.28176V2.28176ZM1142.11 1.84789L1151.57 15.6279L1153.22 14.4956L1143.76 0.715628L1142.11 1.84789ZM1153.04 15.827L1169.42 2.04699L1168.13 0.516534L1151.75 14.2965L1153.04 15.827ZM1168.78 2.28176H1183.8V0.28176H1168.78V2.28176ZM1183.16 0.517447L1155.55 23.8134L1156.84 25.3421L1184.45 2.04607L1183.16 0.517447ZM1155.23 24.3172L1151.69 37.4212L1153.62 37.9423L1157.16 24.8383L1155.23 24.3172ZM1152.66 36.6818H1141.16V38.6818H1152.66V36.6818ZM1194.99 37.6818L1194.02 37.4224L1193.68 38.6818H1194.99V37.6818ZM1204.76 1.28176V0.28176H1204L1203.8 1.02238L1204.76 1.28176ZM1250.57 1.28176L1251.54 1.53765L1251.87 0.28176H1250.57V1.28176ZM1248.23 10.1218V11.1218H1249L1249.2 10.3777L1248.23 10.1218ZM1213.86 10.1218V9.12176H1213.1L1212.9 9.8623L1213.86 10.1218ZM1211.99 17.0898L1211.03 16.8303L1210.69 18.0898H1211.99V17.0898ZM1242.72 17.0898L1243.69 17.3471L1244.02 16.0898H1242.72V17.0898ZM1240.38 25.8778V26.8778H1241.15L1241.35 26.1351L1240.38 25.8778ZM1209.65 25.8778V24.8778H1208.88L1208.69 25.6182L1209.65 25.8778ZM1206.48 37.6818V38.6818H1207.25L1207.44 37.9413L1206.48 37.6818ZM1195.95 37.9411L1205.73 1.54114L1203.8 1.02238L1194.02 37.4224L1195.95 37.9411ZM1204.76 2.28176L1250.57 2.28176V0.28176L1204.76 0.28176V2.28176ZM1249.61 1.02587L1247.27 9.86587L1249.2 10.3777L1251.54 1.53765L1249.61 1.02587ZM1248.23 9.12176L1213.86 9.12176V11.1218L1248.23 11.1218V9.12176ZM1212.9 9.8623L1211.03 16.8303L1212.96 17.3492L1214.83 10.3812L1212.9 9.8623ZM1211.99 18.0898H1242.72V16.0898H1211.99V18.0898ZM1241.76 16.8325L1239.42 25.6205L1241.35 26.1351L1243.69 17.3471L1241.76 16.8325ZM1240.38 24.8778L1209.65 24.8778V26.8778L1240.38 26.8778V24.8778ZM1208.69 25.6182L1205.51 37.4222L1207.44 37.9413L1210.62 26.1373L1208.69 25.6182ZM1206.48 36.6818H1194.99V38.6818H1206.48V36.6818ZM1303.32 18.9098L1302.35 18.6505L1302.35 18.6524L1303.32 18.9098ZM1293.28 33.8338L1293.81 34.6831L1293.81 34.6804L1293.28 33.8338ZM1259.79 35.8098L1259.36 36.7095L1259.36 36.7095L1259.79 35.8098ZM1252.72 28.7898L1251.79 29.1574L1251.8 29.1667L1252.72 28.7898ZM1252.51 18.5458L1253.48 18.8067L1253.48 18.8047L1252.51 18.5458ZM1257.14 1.28176V0.28176H1256.38L1256.18 1.02283L1257.14 1.28176ZM1268.63 1.28176L1269.6 1.53887L1269.94 0.28176H1268.63V1.28176ZM1264.11 18.2858L1265.08 18.5467L1265.08 18.5429L1264.11 18.2858ZM1265.57 26.8138L1264.89 27.552L1264.9 27.558L1264.91 27.564L1265.57 26.8138ZM1285.9 26.9178L1286.4 27.7823L1286.41 27.7779L1285.9 26.9178ZM1291.93 18.5458L1292.9 18.8089L1292.9 18.8047L1291.93 18.5458ZM1296.56 1.28176V0.28176H1295.79L1295.59 1.02283L1296.56 1.28176ZM1308.05 1.28176L1309.02 1.54102L1309.35 0.28176H1308.05V1.28176ZM1302.35 18.6524C1300.56 25.3695 1297.34 30.1019 1292.75 32.9871L1293.81 34.6804C1298.93 31.4643 1302.4 26.2473 1304.28 19.1671L1302.35 18.6524ZM1292.75 32.9844C1288.11 35.8682 1281.8 37.3578 1273.73 37.3578V39.3578C1282.02 39.3578 1288.74 37.8313 1293.81 34.6831L1292.75 32.9844ZM1273.73 37.3578C1268.02 37.3578 1263.55 36.5185 1260.23 34.9101L1259.36 36.7095C1263.05 38.4984 1267.86 39.3578 1273.73 39.3578V37.3578ZM1260.23 34.9101C1256.9 33.2955 1254.75 31.1197 1253.65 28.4128L1251.8 29.1667C1253.12 32.4225 1255.68 34.9267 1259.36 36.7095L1260.23 34.9101ZM1253.65 28.4221C1252.57 25.6854 1252.48 22.4982 1253.48 18.8067L1251.55 18.2849C1250.47 22.2893 1250.52 25.9314 1251.79 29.1574L1253.65 28.4221ZM1253.48 18.8047L1258.11 1.54069L1256.18 1.02283L1251.55 18.2868L1253.48 18.8047ZM1257.14 2.28176L1268.63 2.28176V0.28176L1257.14 0.28176V2.28176ZM1267.67 1.02465L1263.14 18.0287L1265.08 18.5429L1269.6 1.53887L1267.67 1.02465ZM1263.15 18.0249C1262.06 22.0463 1262.49 25.3535 1264.89 27.552L1266.24 26.0756C1264.63 24.5993 1264.08 22.2212 1265.08 18.5467L1263.15 18.0249ZM1264.91 27.564C1267.21 29.5971 1270.65 30.5178 1275.03 30.5178V28.5178C1270.88 28.5178 1268.01 27.6358 1266.23 26.0636L1264.91 27.564ZM1275.03 30.5178C1279.43 30.5178 1283.23 29.6231 1286.4 27.7823L1285.4 26.0533C1282.6 27.6791 1279.16 28.5178 1275.03 28.5178V30.5178ZM1286.41 27.7779C1289.64 25.8586 1291.8 22.8347 1292.9 18.8089L1290.97 18.2826C1289.98 21.8835 1288.11 24.4409 1285.39 26.0576L1286.41 27.7779ZM1292.9 18.8047L1297.52 1.54069L1295.59 1.02283L1290.96 18.2868L1292.9 18.8047ZM1296.56 2.28176H1308.05V0.28176H1296.56V2.28176ZM1307.08 1.0225L1302.35 18.6505L1304.28 19.169L1309.02 1.54102L1307.08 1.0225ZM1308.23 37.6818L1307.26 37.4224L1306.93 38.6818H1308.23V37.6818ZM1318.01 1.28176V0.28176H1317.24L1317.04 1.02238L1318.01 1.28176ZM1329.5 1.28176L1330.46 1.54056L1330.8 0.28176H1329.5V1.28176ZM1322.11 28.8418L1321.15 28.583L1320.81 29.8418H1322.11V28.8418ZM1351.08 28.8418L1352.04 29.103L1352.38 27.8418H1351.08V28.8418ZM1348.69 37.6818V38.6818H1349.45L1349.65 37.943L1348.69 37.6818ZM1309.19 37.9411L1318.97 1.54114L1317.04 1.02238L1307.26 37.4224L1309.19 37.9411ZM1318.01 2.28176L1329.5 2.28176V0.28176L1318.01 0.28176V2.28176ZM1328.53 1.02296L1321.15 28.583L1323.08 29.1006L1330.46 1.54056L1328.53 1.02296ZM1322.11 29.8418L1351.08 29.8418V27.8418L1322.11 27.8418V29.8418ZM1350.11 28.5806L1347.72 37.4206L1349.65 37.943L1352.04 29.103L1350.11 28.5806ZM1348.69 36.6818L1308.23 36.6818V38.6818L1348.69 38.6818V36.6818ZM1356.42 37.6818L1355.45 37.4224L1355.12 38.6818H1356.42V37.6818ZM1366.2 1.28176V0.28176H1365.43L1365.23 1.02238L1366.2 1.28176ZM1377.69 1.28176L1378.65 1.54056L1378.99 0.28176H1377.69V1.28176ZM1370.3 28.8418L1369.34 28.583L1369 29.8418H1370.3V28.8418ZM1399.27 28.8418L1400.23 29.103L1400.58 27.8418H1399.27V28.8418ZM1396.88 37.6818V38.6818H1397.64L1397.84 37.943L1396.88 37.6818ZM1357.39 37.9411L1367.16 1.54114L1365.23 1.02238L1355.45 37.4224L1357.39 37.9411ZM1366.2 2.28176H1377.69V0.28176H1366.2V2.28176ZM1376.72 1.02296L1369.34 28.583L1371.27 29.1006L1378.65 1.54056L1376.72 1.02296ZM1370.3 29.8418H1399.27V27.8418H1370.3V29.8418ZM1398.3 28.5806L1395.91 37.4206L1397.84 37.943L1400.23 29.103L1398.3 28.5806ZM1396.88 36.6818H1356.42V38.6818H1396.88V36.6818ZM1404.4 26.6058L1403.44 26.346L1403.1 27.6058H1404.4V26.6058ZM1406.8 17.7138V16.7138H1406.03L1405.83 17.454L1406.8 17.7138ZM1434.2 17.7138L1435.17 17.9735L1435.5 16.7138H1434.2V17.7138ZM1431.81 26.6058V27.6058H1432.57L1432.77 26.8655L1431.81 26.6058ZM1405.37 26.8655L1407.76 17.9735L1405.83 17.454L1403.44 26.346L1405.37 26.8655ZM1406.8 18.7138H1434.2V16.7138H1406.8V18.7138ZM1433.23 17.454L1430.84 26.346L1432.77 26.8655L1435.17 17.9735L1433.23 17.454ZM1431.81 25.6058H1404.4V27.6058H1431.81V25.6058ZM1440.55 13.9178L1441.43 14.4053L1441.43 14.4005L1440.55 13.9178ZM1447 6.89776L1446.43 6.07664L1446.43 6.07996L1447 6.89776ZM1488.65 3.82976L1488.19 4.71662L1488.19 4.71819L1488.65 3.82976ZM1495.26 13.2418L1495.45 14.2222L1496.31 14.051L1496.26 13.183L1495.26 13.2418ZM1483.35 15.6338L1482.35 15.7003L1482.43 16.8389L1483.55 16.6142L1483.35 15.6338ZM1479.92 11.0058L1479.48 11.906L1479.49 11.9116L1479.92 11.0058ZM1458.81 11.1618L1459.16 12.0963L1459.17 12.0925L1458.81 11.1618ZM1452.36 15.5818L1451.56 14.9794L1451.56 14.9818L1452.36 15.5818ZM1453.71 27.4378L1453.18 28.2836L1453.18 28.2883L1453.19 28.293L1453.71 27.4378ZM1474.61 27.9578L1474.25 27.0276L1474.24 27.0293L1474.61 27.9578ZM1480.65 23.1218L1480.84 22.1414L1480.17 22.0061L1479.8 22.5858L1480.65 23.1218ZM1492.03 25.4098L1492.92 25.8738L1493.54 24.6921L1492.23 24.4294L1492.03 25.4098ZM1486 32.6378L1485.39 31.8431L1485.39 31.8472L1486 32.6378ZM1476.64 36.9538L1476.88 37.9245L1476.89 37.9223L1476.64 36.9538ZM1444.61 34.2498L1444.06 35.0871L1444.07 35.0891L1444.61 34.2498ZM1439.32 22.6018C1439.32 19.6488 1440.02 16.9225 1441.43 14.4053L1439.68 13.4302C1438.11 16.2517 1437.32 19.3147 1437.32 22.6018H1439.32ZM1441.43 14.4005C1442.84 11.8439 1444.88 9.61405 1447.58 7.71557L1446.43 6.07996C1443.51 8.13348 1441.25 10.5837 1439.68 13.435L1441.43 14.4005ZM1447.57 7.71887C1450.31 5.81907 1453.63 4.319 1457.56 3.23375L1457.03 1.30577C1452.92 2.43918 1449.38 4.02445 1446.43 6.07665L1447.57 7.71887ZM1457.56 3.23375C1461.48 2.15291 1465.95 1.60576 1470.97 1.60576V-0.39424C1465.81 -0.39424 1461.16 0.167947 1457.03 1.30577L1457.56 3.23375ZM1470.97 1.60576C1478.57 1.60576 1484.27 2.67488 1488.19 4.71661L1489.12 2.94291C1484.78 0.685971 1478.7 -0.39424 1470.97 -0.39424V1.60576ZM1488.19 4.71819C1492.09 6.73128 1494.04 9.58018 1494.26 13.3005L1496.26 13.183C1495.99 8.65267 1493.54 5.2269 1489.11 2.94134L1488.19 4.71819ZM1495.06 12.2613L1483.15 14.6533L1483.55 16.6142L1495.45 14.2222L1495.06 12.2613ZM1484.35 15.5672C1484.18 13.0668 1482.77 11.2338 1480.34 10.1L1479.49 11.9116C1481.37 12.7884 1482.24 14.0408 1482.35 15.7003L1484.35 15.5672ZM1480.35 10.1056C1478 8.96478 1474.5 8.44576 1469.99 8.44576V10.4458C1474.42 10.4458 1477.54 10.9667 1479.48 11.9059L1480.35 10.1056ZM1469.99 8.44576C1465.37 8.44576 1461.51 9.02554 1458.44 10.231L1459.17 12.0925C1461.93 11.01 1465.52 10.4458 1469.99 10.4458V8.44576ZM1458.45 10.2273C1455.42 11.3806 1453.09 12.9477 1451.56 14.9794L1453.16 16.1842C1454.4 14.5411 1456.37 13.1616 1459.16 12.0962L1458.45 10.2273ZM1451.56 14.9818C1450.09 16.939 1449.33 19.0699 1449.33 21.3538H1451.33C1451.33 19.5469 1451.92 17.8299 1453.16 16.1818L1451.56 14.9818ZM1449.33 21.3538C1449.33 24.3364 1450.64 26.6816 1453.18 28.2836L1454.24 26.592C1452.28 25.3513 1451.33 23.6405 1451.33 21.3538H1449.33ZM1453.19 28.293C1455.72 29.8247 1459.55 30.5178 1464.53 30.5178V28.5178C1459.65 28.5178 1456.28 27.8241 1454.23 26.5826L1453.19 28.293ZM1464.53 30.5178C1468.72 30.5178 1472.23 29.9903 1474.99 28.8862L1474.24 27.0293C1471.8 28.0052 1468.58 28.5178 1464.53 28.5178V30.5178ZM1474.98 28.8879C1477.79 27.778 1479.98 26.0373 1481.49 23.6578L1479.8 22.5858C1478.54 24.5742 1476.7 26.0575 1474.25 27.0276L1474.98 28.8879ZM1480.45 24.1022L1491.84 26.3902L1492.23 24.4294L1480.84 22.1414L1480.45 24.1022ZM1491.15 24.9458C1489.69 27.7347 1487.77 30.0291 1485.39 31.8431L1486.61 33.4324C1489.23 31.4331 1491.33 28.9088 1492.92 25.8738L1491.15 24.9458ZM1485.39 31.8472C1483.06 33.6521 1480.07 35.0402 1476.39 35.9852L1476.89 37.9223C1480.77 36.926 1484.02 35.4367 1486.61 33.4283L1485.39 31.8472ZM1476.4 35.9831C1472.73 36.8937 1468.22 37.3578 1462.86 37.3578V39.3578C1468.32 39.3578 1473 38.8858 1476.88 37.9244L1476.4 35.9831ZM1462.86 37.3578C1455.01 37.3578 1449.15 36 1445.15 33.4104L1444.07 35.0891C1448.53 37.9769 1454.83 39.3578 1462.86 39.3578V37.3578ZM1445.16 33.4124C1441.25 30.8592 1439.32 27.2921 1439.32 22.6018H1437.32C1437.32 27.9648 1439.58 32.163 1444.06 35.0871L1445.16 33.4124ZM1509.79 37.6818L1508.82 37.4223L1508.48 38.6818H1509.79V37.6818ZM1513.53 23.7458L1514.5 24.0052L1514.62 23.5568L1514.35 23.1754L1513.53 23.7458ZM1497.93 1.28176V0.28176H1496.02L1497.11 1.85216L1497.93 1.28176ZM1511.55 1.28176L1512.38 0.715628L1512.08 0.28176H1511.55V1.28176ZM1521.02 15.0618L1520.19 15.6279L1520.82 16.5369L1521.66 15.827L1521.02 15.0618ZM1537.4 1.28176V0.28176H1537.03L1536.75 0.516534L1537.4 1.28176ZM1552.43 1.28176L1553.07 2.04607L1555.16 0.28176H1552.43V1.28176ZM1524.81 24.5778L1524.17 23.8134L1523.93 24.0152L1523.85 24.3172L1524.81 24.5778ZM1521.28 37.6818V38.6818H1522.04L1522.24 37.9423L1521.28 37.6818ZM1510.75 37.9412L1514.5 24.0052L1512.56 23.4863L1508.82 37.4223L1510.75 37.9412ZM1514.35 23.1754L1498.75 0.711364L1497.11 1.85216L1512.71 24.3162L1514.35 23.1754ZM1497.93 2.28176H1511.55V0.28176H1497.93V2.28176ZM1510.73 1.84789L1520.19 15.6279L1521.84 14.4956L1512.38 0.715628L1510.73 1.84789ZM1521.66 15.827L1538.04 2.04699L1536.75 0.516534L1520.37 14.2965L1521.66 15.827ZM1537.4 2.28176L1552.43 2.28176V0.28176L1537.4 0.28176V2.28176ZM1551.78 0.517447L1524.17 23.8134L1525.46 25.3421L1553.07 2.04607L1551.78 0.517447ZM1523.85 24.3172L1520.31 37.4212L1522.24 37.9423L1525.78 24.8383L1523.85 24.3172ZM1521.28 36.6818H1509.79V38.6818H1521.28V36.6818ZM1550.75 13.9178L1551.62 14.4053L1551.62 14.4005L1550.75 13.9178ZM1557.2 6.89776L1556.63 6.07664L1556.62 6.07996L1557.2 6.89776ZM1598.85 3.82976L1598.39 4.71662L1598.39 4.71819L1598.85 3.82976ZM1605.45 13.2418L1605.65 14.2222L1606.5 14.051L1606.45 13.183L1605.45 13.2418ZM1593.55 15.6338L1592.55 15.7003L1592.62 16.8389L1593.74 16.6142L1593.55 15.6338ZM1590.11 11.0058L1589.68 11.906L1589.69 11.9116L1590.11 11.0058ZM1569 11.1618L1569.36 12.0963L1569.37 12.0925L1569 11.1618ZM1562.55 15.5818L1561.75 14.9794L1561.75 14.9818L1562.55 15.5818ZM1563.91 27.4378L1563.37 28.2836L1563.38 28.2883L1563.39 28.293L1563.91 27.4378ZM1584.81 27.9578L1584.44 27.0276L1584.44 27.0293L1584.81 27.9578ZM1590.84 23.1218L1591.04 22.1414L1590.36 22.0061L1590 22.5858L1590.84 23.1218ZM1602.23 25.4098L1603.11 25.8738L1603.73 24.6921L1602.43 24.4294L1602.23 25.4098ZM1596.2 32.6378L1595.59 31.8431L1595.58 31.8472L1596.2 32.6378ZM1586.84 36.9538L1587.08 37.9245L1587.09 37.9223L1586.84 36.9538ZM1554.81 34.2498L1554.26 35.0871L1554.26 35.0891L1554.81 34.2498ZM1549.51 22.6018C1549.51 19.6488 1550.22 16.9225 1551.62 14.4053L1549.88 13.4302C1548.3 16.2517 1547.51 19.3147 1547.51 22.6018H1549.51ZM1551.62 14.4005C1553.03 11.8439 1555.07 9.61405 1557.77 7.71557L1556.62 6.07996C1553.7 8.13348 1551.45 10.5837 1549.87 13.435L1551.62 14.4005ZM1557.77 7.71887C1560.5 5.81907 1563.82 4.319 1567.76 3.23375L1567.23 1.30577C1563.12 2.43918 1559.58 4.02445 1556.63 6.07665L1557.77 7.71887ZM1567.76 3.23375C1571.68 2.15291 1576.14 1.60576 1581.17 1.60576V-0.39424C1576 -0.39424 1571.35 0.167947 1567.23 1.30577L1567.76 3.23375ZM1581.17 1.60576C1588.76 1.60576 1594.47 2.67488 1598.39 4.71661L1599.31 2.94291C1594.98 0.685971 1588.9 -0.39424 1581.17 -0.39424V1.60576ZM1598.39 4.71819C1602.29 6.73128 1604.24 9.58018 1604.45 13.3005L1606.45 13.183C1606.18 8.65267 1603.73 5.2269 1599.31 2.94134L1598.39 4.71819ZM1605.26 12.2613L1593.35 14.6533L1593.74 16.6142L1605.65 14.2222L1605.26 12.2613ZM1594.54 15.5672C1594.38 13.0668 1592.96 11.2338 1590.54 10.1L1589.69 11.9116C1591.56 12.7884 1592.44 14.0408 1592.55 15.7003L1594.54 15.5672ZM1590.55 10.1056C1588.19 8.96478 1584.69 8.44576 1580.18 8.44576V10.4458C1584.61 10.4458 1587.74 10.9667 1589.68 11.9059L1590.55 10.1056ZM1580.18 8.44576C1575.57 8.44576 1571.7 9.02554 1568.64 10.231L1569.37 12.0925C1572.12 11.01 1575.71 10.4458 1580.18 10.4458V8.44576ZM1568.65 10.2273C1565.62 11.3806 1563.29 12.9477 1561.75 14.9794L1563.35 16.1842C1564.59 14.5411 1566.56 13.1616 1569.36 12.0962L1568.65 10.2273ZM1561.75 14.9818C1560.29 16.939 1559.53 19.0699 1559.53 21.3538H1561.53C1561.53 19.5469 1562.12 17.8299 1563.35 16.1818L1561.75 14.9818ZM1559.53 21.3538C1559.53 24.3364 1560.83 26.6816 1563.37 28.2836L1564.44 26.592C1562.47 25.3513 1561.53 23.6405 1561.53 21.3538H1559.53ZM1563.39 28.293C1565.91 29.8247 1569.75 30.5178 1574.72 30.5178V28.5178C1569.85 28.5178 1566.47 27.8241 1564.42 26.5826L1563.39 28.293ZM1574.72 30.5178C1578.92 30.5178 1582.42 29.9903 1585.18 28.8862L1584.44 27.0293C1582 28.0052 1578.77 28.5178 1574.72 28.5178V30.5178ZM1585.18 28.8879C1587.99 27.778 1590.17 26.0373 1591.69 23.6578L1590 22.5858C1588.73 24.5742 1586.9 26.0575 1584.44 27.0276L1585.18 28.8879ZM1590.64 24.1022L1602.03 26.3902L1602.43 24.4294L1591.04 22.1414L1590.64 24.1022ZM1601.34 24.9458C1599.88 27.7347 1597.96 30.0291 1595.59 31.8431L1596.8 33.4324C1599.42 31.4331 1601.53 28.9088 1603.11 25.8738L1601.34 24.9458ZM1595.58 31.8472C1593.25 33.6521 1590.27 35.0402 1586.59 35.9852L1587.09 37.9223C1590.96 36.926 1594.22 35.4367 1596.81 33.4283L1595.58 31.8472ZM1586.6 35.9831C1582.92 36.8937 1578.41 37.3578 1573.06 37.3578V39.3578C1578.52 39.3578 1583.2 38.8858 1587.08 37.9244L1586.6 35.9831ZM1573.06 37.3578C1565.21 37.3578 1559.35 36 1555.35 33.4104L1554.26 35.0891C1558.72 37.9769 1565.03 39.3578 1573.06 39.3578V37.3578ZM1555.35 33.4124C1551.44 30.8592 1549.51 27.2921 1549.51 22.6018H1547.51C1547.51 27.9648 1549.78 32.163 1554.26 35.0871L1555.35 33.4124ZM1606.82 37.6818L1605.86 37.4224L1605.52 38.6818H1606.82V37.6818ZM1616.6 1.28176V0.28176H1615.83L1615.63 1.02238L1616.6 1.28176ZM1628.09 1.28176L1629.06 1.54056L1629.39 0.28176H1628.09V1.28176ZM1620.71 28.8418L1619.74 28.583L1619.4 29.8418H1620.71V28.8418ZM1649.67 28.8418L1650.64 29.103L1650.98 27.8418H1649.67V28.8418ZM1647.28 37.6818V38.6818H1648.04L1648.24 37.943L1647.28 37.6818ZM1607.79 37.9411L1617.56 1.54114L1615.63 1.02238L1605.86 37.4224L1607.79 37.9411ZM1616.6 2.28176H1628.09V0.28176H1616.6V2.28176ZM1627.13 1.02296L1619.74 28.583L1621.67 29.1006L1629.06 1.54056L1627.13 1.02296ZM1620.71 29.8418H1649.67V27.8418H1620.71V29.8418ZM1648.71 28.5806L1646.31 37.4206L1648.24 37.943L1650.64 29.103L1648.71 28.5806ZM1647.28 36.6818H1606.82V38.6818H1647.28V36.6818ZM1655.01 37.6818L1654.05 37.4224L1653.71 38.6818H1655.01V37.6818ZM1664.79 1.28176V0.28176H1664.02L1663.82 1.02238L1664.79 1.28176ZM1710.6 1.28176L1711.57 1.54019L1711.91 0.28176H1710.6V1.28176ZM1708.42 9.44576V10.4458H1709.19L1709.38 9.70419L1708.42 9.44576ZM1673.73 9.44576V8.44576H1672.97L1672.77 9.18643L1673.73 9.44576ZM1672.23 15.0618L1671.26 14.8024L1670.92 16.0618H1672.23V15.0618ZM1703.32 15.0618L1704.29 15.3217L1704.63 14.0618H1703.32V15.0618ZM1701.14 23.1738V24.1738H1701.9L1702.1 23.4337L1701.14 23.1738ZM1670.09 23.1738V22.1738H1669.33L1669.13 22.9127L1670.09 23.1738ZM1668.38 29.5178L1667.41 29.2567L1667.07 30.5178H1668.38V29.5178ZM1703.43 29.5178L1704.39 29.7762L1704.73 28.5178H1703.43V29.5178ZM1701.24 37.6818V38.6818H1702.01L1702.21 37.9402L1701.24 37.6818ZM1655.98 37.9411L1665.76 1.54114L1663.82 1.02238L1654.05 37.4224L1655.98 37.9411ZM1664.79 2.28176L1710.6 2.28176V0.28176L1664.79 0.28176V2.28176ZM1709.64 1.02333L1707.45 9.18733L1709.38 9.70419L1711.57 1.54019L1709.64 1.02333ZM1708.42 8.44576L1673.73 8.44576V10.4458L1708.42 10.4458V8.44576ZM1672.77 9.18643L1671.26 14.8024L1673.19 15.3211L1674.7 9.70509L1672.77 9.18643ZM1672.23 16.0618L1703.32 16.0618V14.0618L1672.23 14.0618V16.0618ZM1702.36 14.8018L1700.17 22.9138L1702.1 23.4337L1704.29 15.3217L1702.36 14.8018ZM1701.14 22.1738H1670.09V24.1738H1701.14V22.1738ZM1669.13 22.9127L1667.41 29.2567L1669.34 29.7789L1671.06 23.4349L1669.13 22.9127ZM1668.38 30.5178H1703.43V28.5178H1668.38V30.5178ZM1702.46 29.2593L1700.28 37.4233L1702.21 37.9402L1704.39 29.7762L1702.46 29.2593ZM1701.24 36.6818H1655.01V38.6818H1701.24V36.6818ZM1725.65 37.6818L1724.69 37.4224L1724.35 38.6818H1725.65V37.6818ZM1735.43 1.28176V0.28176H1734.66L1734.46 1.02238L1735.43 1.28176ZM1781.24 1.28176L1782.21 1.54019L1782.54 0.28176H1781.24V1.28176ZM1779.06 9.44576V10.4458H1779.82L1780.02 9.70419L1779.06 9.44576ZM1744.37 9.44576V8.44576H1743.6L1743.41 9.18643L1744.37 9.44576ZM1742.86 15.0618L1741.9 14.8024L1741.56 16.0618H1742.86V15.0618ZM1773.96 15.0618L1774.92 15.3217L1775.26 14.0618H1773.96V15.0618ZM1771.78 23.1738V24.1738H1772.54L1772.74 23.4337L1771.78 23.1738ZM1740.73 23.1738V22.1738H1739.97L1739.77 22.9127L1740.73 23.1738ZM1739.02 29.5178L1738.05 29.2567L1737.71 30.5178H1739.02V29.5178ZM1774.06 29.5178L1775.03 29.7762L1775.37 28.5178H1774.06V29.5178ZM1771.88 37.6818V38.6818H1772.65L1772.85 37.9402L1771.88 37.6818ZM1726.62 37.9411L1736.39 1.54114L1734.46 1.02238L1724.69 37.4224L1726.62 37.9411ZM1735.43 2.28176L1781.24 2.28176V0.28176L1735.43 0.28176V2.28176ZM1780.27 1.02333L1778.09 9.18733L1780.02 9.70419L1782.21 1.54019L1780.27 1.02333ZM1779.06 8.44576L1744.37 8.44576V10.4458L1779.06 10.4458V8.44576ZM1743.41 9.18643L1741.9 14.8024L1743.83 15.3211L1745.34 9.70509L1743.41 9.18643ZM1742.86 16.0618L1773.96 16.0618V14.0618L1742.86 14.0618V16.0618ZM1772.99 14.8018L1770.81 22.9138L1772.74 23.4337L1774.92 15.3217L1772.99 14.8018ZM1771.78 22.1738H1740.73V24.1738H1771.78V22.1738ZM1739.77 22.9127L1738.05 29.2567L1739.98 29.7789L1741.7 23.4349L1739.77 22.9127ZM1739.02 30.5178H1774.06V28.5178H1739.02V30.5178ZM1773.1 29.2593L1770.91 37.4233L1772.85 37.9402L1775.03 29.7762L1773.1 29.2593ZM1771.88 36.6818L1725.65 36.6818V38.6818L1771.88 38.6818V36.6818ZM1796.78 1.28176L1797.72 0.945913L1797.48 0.28176H1796.78V1.28176ZM1805.83 26.6578L1804.88 26.9936L1805.45 28.5758L1806.57 27.3257L1805.83 26.6578ZM1828.6 1.28176V0.28176H1828.16L1827.86 0.613807L1828.6 1.28176ZM1842.12 1.28176L1842.87 1.94955L1844.36 0.28176H1842.12V1.28176ZM1809.47 37.6818V38.6818H1809.91L1810.21 38.3496L1809.47 37.6818ZM1797.66 37.6818L1796.72 38.0217L1796.96 38.6818H1797.66V37.6818ZM1784.51 1.28176V0.28176H1783.08L1783.57 1.62167L1784.51 1.28176ZM1795.84 1.61761L1804.88 26.9936L1806.77 26.3219L1797.72 0.945913L1795.84 1.61761ZM1806.57 27.3257L1829.35 1.94971L1827.86 0.613807L1805.08 25.9898L1806.57 27.3257ZM1828.6 2.28176L1842.12 2.28176V0.28176L1828.6 0.28176V2.28176ZM1841.38 0.613971L1808.72 37.014L1810.21 38.3496L1842.87 1.94955L1841.38 0.613971ZM1809.47 36.6818H1797.66V38.6818H1809.47V36.6818ZM1798.6 37.3419L1785.45 0.941852L1783.57 1.62167L1796.72 38.0217L1798.6 37.3419ZM1784.51 2.28176H1796.78V0.28176H1784.51V2.28176ZM1838.03 37.6818L1837.06 37.4224L1836.73 38.6818H1838.03V37.6818ZM1847.81 1.28176V0.28176H1847.04L1846.84 1.02238L1847.81 1.28176ZM1893.62 1.28176L1894.58 1.54019L1894.92 0.28176H1893.62V1.28176ZM1891.43 9.44576V10.4458H1892.2L1892.4 9.70419L1891.43 9.44576ZM1856.75 9.44576V8.44576H1855.98L1855.78 9.18643L1856.75 9.44576ZM1855.24 15.0618L1854.28 14.8024L1853.94 16.0618H1855.24V15.0618ZM1886.34 15.0618L1887.3 15.3217L1887.64 14.0618H1886.34V15.0618ZM1884.15 23.1738V24.1738H1884.92L1885.12 23.4337L1884.15 23.1738ZM1853.11 23.1738V22.1738H1852.34L1852.14 22.9127L1853.11 23.1738ZM1851.39 29.5178L1850.43 29.2567L1850.09 30.5178H1851.39V29.5178ZM1886.44 29.5178L1887.41 29.7762L1887.74 28.5178H1886.44V29.5178ZM1884.26 37.6818V38.6818H1885.03L1885.22 37.9402L1884.26 37.6818ZM1839 37.9411L1848.77 1.54114L1846.84 1.02238L1837.06 37.4224L1839 37.9411ZM1847.81 2.28176L1893.62 2.28176V0.28176L1847.81 0.28176V2.28176ZM1892.65 1.02333L1890.47 9.18733L1892.4 9.70419L1894.58 1.54019L1892.65 1.02333ZM1891.43 8.44576L1856.75 8.44576V10.4458L1891.43 10.4458V8.44576ZM1855.78 9.18643L1854.28 14.8024L1856.21 15.3211L1857.72 9.70509L1855.78 9.18643ZM1855.24 16.0618L1886.34 16.0618V14.0618L1855.24 14.0618V16.0618ZM1885.37 14.8018L1883.19 22.9138L1885.12 23.4337L1887.3 15.3217L1885.37 14.8018ZM1884.15 22.1738L1853.11 22.1738V24.1738L1884.15 24.1738V22.1738ZM1852.14 22.9127L1850.43 29.2567L1852.36 29.7789L1854.08 23.4349L1852.14 22.9127ZM1851.39 30.5178L1886.44 30.5178V28.5178L1851.39 28.5178V30.5178ZM1885.48 29.2593L1883.29 37.4233L1885.22 37.9402L1887.41 29.7762L1885.48 29.2593ZM1884.26 36.6818L1838.03 36.6818V38.6818L1884.26 38.6818V36.6818ZM1892.57 37.6818L1891.6 37.4224L1891.27 38.6818H1892.57V37.6818ZM1902.35 1.28176V0.28176L1901.58 0.28176L1901.38 1.02238L1902.35 1.28176ZM1913.47 1.28176L1914.22 0.616168L1913.92 0.28176H1913.47V1.28176ZM1936.2 26.7618L1935.45 27.4274L1936.68 28.8106L1937.16 27.02L1936.2 26.7618ZM1943.01 1.28176V0.28176H1942.24L1942.04 1.02348L1943.01 1.28176ZM1953.83 1.28176L1954.79 1.53985L1955.13 0.28176H1953.83V1.28176ZM1944.1 37.6818V38.6818H1944.87L1945.07 37.9399L1944.1 37.6818ZM1932.97 37.6818L1932.23 38.3474L1932.52 38.6818H1932.97V37.6818ZM1910.25 12.2018L1911 11.5362L1909.76 10.156L1909.28 11.9416L1910.25 12.2018ZM1903.39 37.6818V38.6818H1904.15L1904.35 37.9419L1903.39 37.6818ZM1893.53 37.9411L1903.31 1.54114L1901.38 1.02238L1891.6 37.4224L1893.53 37.9411ZM1902.35 2.28176H1913.47V0.28176H1902.35V2.28176ZM1912.73 1.94735L1935.45 27.4274L1936.94 26.0962L1914.22 0.616168L1912.73 1.94735ZM1937.16 27.02L1943.98 1.54004L1942.04 1.02348L1935.23 26.5035L1937.16 27.02ZM1943.01 2.28176H1953.83V0.28176H1943.01V2.28176ZM1952.86 1.02367L1943.13 37.4237L1945.07 37.9399L1954.79 1.53985L1952.86 1.02367ZM1944.1 36.6818H1932.97V38.6818H1944.1V36.6818ZM1933.72 37.0162L1911 11.5362L1909.5 12.8674L1932.23 38.3474L1933.72 37.0162ZM1909.28 11.9416L1902.42 37.4216L1904.35 37.9419L1911.21 12.4619L1909.28 11.9416ZM1903.39 36.6818H1892.57V38.6818H1903.39V36.6818ZM1970.52 37.6818L1969.56 37.423L1969.22 38.6818H1970.52V37.6818ZM1977.91 10.1218L1978.87 10.3806L1979.21 9.12176H1977.91V10.1218ZM1958.46 10.1218L1957.49 9.86057L1957.15 11.1218H1958.46V10.1218ZM1960.85 1.28176V0.28176H1960.09L1959.89 1.02057L1960.85 1.28176ZM2011.24 1.28176L2012.2 1.54296L2012.55 0.28176H2011.24V1.28176ZM2008.85 10.1218V11.1218H2009.61L2009.81 10.383L2008.85 10.1218ZM1989.4 10.1218V9.12176H1988.63L1988.43 9.86296L1989.4 10.1218ZM1982.02 37.6818V38.6818L1982.78 38.6818L1982.98 37.9406L1982.02 37.6818ZM1971.49 37.9406L1978.87 10.3806L1976.94 9.86296L1969.56 37.423L1971.49 37.9406ZM1977.91 9.12176H1958.46V11.1218H1977.91V9.12176ZM1959.42 10.383L1961.82 1.54296L1959.89 1.02057L1957.49 9.86057L1959.42 10.383ZM1960.85 2.28176L2011.24 2.28176V0.28176L1960.85 0.28176V2.28176ZM2010.27 1.02057L2007.88 9.86057L2009.81 10.383L2012.2 1.54296L2010.27 1.02057ZM2008.85 9.12176H1989.4V11.1218H2008.85V9.12176ZM1988.43 9.86296L1981.05 37.423L1982.98 37.9406L1990.37 10.3806L1988.43 9.86296ZM1982.02 36.6818H1970.52V38.6818H1982.02V36.6818ZM2067.55 37.6818L2066.62 38.0378L2066.86 38.6818H2067.55V37.6818ZM2065.06 31.1298L2065.99 30.7738L2065.75 30.1298H2065.06V31.1298ZM2038.59 31.1298V30.1298H2038.15L2037.85 30.4525L2038.59 31.1298ZM2032.56 37.6818V38.6818H2032.99L2033.29 38.3591L2032.56 37.6818ZM2019.09 37.6818L2018.36 36.998L2016.78 38.6818H2019.09V37.6818ZM2053.2 1.28176V0.28176H2052.77L2052.47 0.597958L2053.2 1.28176ZM2065 1.28176L2065.93 0.909227L2065.68 0.28176H2065V1.28176ZM2079.62 37.6818V38.6818H2081.1L2080.54 37.3092L2079.62 37.6818ZM2046.18 22.9138L2045.45 22.2359L2043.9 23.9138H2046.18V22.9138ZM2061.88 22.9138V23.9138H2063.34L2062.82 22.5542L2061.88 22.9138ZM2057.26 10.9018L2058.19 10.5422L2057.61 9.04161L2056.52 10.2239L2057.26 10.9018ZM2068.49 37.3258L2065.99 30.7738L2064.12 31.4858L2066.62 38.0378L2068.49 37.3258ZM2065.06 30.1298H2038.59V32.1298H2065.06V30.1298ZM2037.85 30.4525L2031.82 37.0045L2033.29 38.3591L2039.32 31.8071L2037.85 30.4525ZM2032.56 36.6818H2019.09V38.6818H2032.56V36.6818ZM2019.82 38.3656L2053.93 1.96556L2052.47 0.597958L2018.36 36.998L2019.82 38.3656ZM2053.2 2.28176L2065 2.28176V0.28176L2053.2 0.28176V2.28176ZM2064.08 1.65429L2078.69 38.0543L2080.54 37.3092L2065.93 0.909227L2064.08 1.65429ZM2079.62 36.6818H2067.55V38.6818H2079.62V36.6818ZM2046.18 23.9138H2061.88V21.9138H2046.18V23.9138ZM2062.82 22.5542L2058.19 10.5422L2056.32 11.2613L2060.95 23.2733L2062.82 22.5542ZM2056.52 10.2239L2045.45 22.2359L2046.92 23.5916L2057.99 11.5796L2056.52 10.2239ZM2086.29 13.8658L2085.42 13.3782L2085.42 13.3782L2086.29 13.8658ZM2092.74 6.89776L2092.17 6.07664L2092.16 6.07996L2092.74 6.89776ZM2134.39 3.72576L2133.94 4.61868L2133.94 4.61868L2134.39 3.72576ZM2140.99 12.8778L2141.19 13.8592L2142.05 13.6896L2141.99 12.809L2140.99 12.8778ZM2129.03 15.2178L2128.04 15.289L2128.12 16.4161L2129.23 16.1992L2129.03 15.2178ZM2125.6 10.9018L2125.18 11.8106L2125.19 11.8147L2125.2 11.8186L2125.6 10.9018ZM2104.49 11.1618L2104.85 12.0963L2104.85 12.0925L2104.49 11.1618ZM2098.04 15.5818L2097.24 14.9794L2097.24 14.9818L2098.04 15.5818ZM2099.55 27.4378L2099.03 28.2941L2099.04 28.2986L2099.05 28.3029L2099.55 27.4378ZM2120.87 28.3738L2121.13 29.3388L2121.13 29.3388L2120.87 28.3738ZM2127.53 24.7338L2128.24 25.4334L2129.9 23.7338H2127.53V24.7338ZM2111.3 24.7338L2110.34 24.4757L2110 25.7338L2111.3 25.7338V24.7338ZM2113.33 17.1418V16.1418H2112.56L2112.36 16.8837L2113.33 17.1418ZM2141.72 17.1418L2142.69 17.4009L2143.03 16.1418L2141.72 16.1418V17.1418ZM2136.21 37.6818V38.6818H2136.98L2137.18 37.9409L2136.21 37.6818ZM2127.37 37.6818L2126.37 37.5814L2126.26 38.6818H2127.37V37.6818ZM2127.99 31.4938L2128.99 31.5941L2129.24 29.093L2127.34 30.7374L2127.99 31.4938ZM2118.79 36.5898L2118.48 35.6402L2118.47 35.6411L2118.79 36.5898ZM2089.62 34.2498L2089.02 35.0507L2089.03 35.0569L2089.62 34.2498ZM2085.05 22.5498C2085.05 19.5968 2085.76 16.8705 2087.16 14.3533L2085.42 13.3782C2083.84 16.1997 2083.05 19.2627 2083.05 22.5498H2085.05ZM2087.16 14.3533C2088.57 11.8303 2090.61 9.61591 2093.31 7.71557L2092.16 6.07996C2089.25 8.13161 2086.99 10.5625 2085.42 13.3782L2087.16 14.3533ZM2093.31 7.71887C2096.04 5.81907 2099.37 4.319 2103.3 3.23375L2102.77 1.30577C2098.66 2.43918 2095.12 4.02445 2092.17 6.07665L2093.31 7.71887ZM2103.3 3.23375C2107.22 2.15291 2111.68 1.60576 2116.71 1.60576V-0.39424C2111.54 -0.39424 2106.89 0.167947 2102.77 1.30577L2103.3 3.23375ZM2116.71 1.60576C2124.3 1.60576 2130.02 2.64088 2133.94 4.61868L2134.84 2.83284C2130.51 0.650644 2124.44 -0.39424 2116.71 -0.39424V1.60576ZM2133.94 4.61868C2137.8 6.56747 2139.75 9.33455 2140 12.9466L2141.99 12.809C2141.69 8.3783 2139.23 5.04405 2134.84 2.83284L2133.94 4.61868ZM2140.8 11.8964L2128.84 14.2364L2129.23 16.1992L2141.19 13.8592L2140.8 11.8964ZM2130.03 15.1465C2129.86 12.7508 2128.41 11.033 2126 9.98493L2125.2 11.8186C2127.09 12.6425 2127.93 13.802 2128.04 15.289L2130.03 15.1465ZM2126.02 9.99293C2123.7 8.9289 2120.21 8.44576 2115.67 8.44576V10.4458C2120.14 10.4458 2123.27 10.9333 2125.18 11.8106L2126.02 9.99293ZM2115.67 8.44576C2111.05 8.44576 2107.19 9.02554 2104.12 10.231L2104.85 12.0925C2107.61 11.01 2111.2 10.4458 2115.67 10.4458V8.44576ZM2104.13 10.2273C2101.11 11.3806 2098.78 12.9477 2097.24 14.9794L2098.84 16.1842C2100.08 14.5411 2102.05 13.1616 2104.85 12.0962L2104.13 10.2273ZM2097.24 14.9818C2095.77 16.939 2095.01 19.0699 2095.01 21.3538H2097.01C2097.01 19.5469 2097.61 17.8299 2098.84 16.1818L2097.24 14.9818ZM2095.01 21.3538C2095.01 24.3577 2096.39 26.7017 2099.03 28.2941L2100.07 26.5814C2097.99 25.3311 2097.01 23.6192 2097.01 21.3538H2095.01ZM2099.05 28.3029C2101.67 29.8227 2105.54 30.5178 2110.52 30.5178V28.5178C2105.66 28.5178 2102.21 27.8261 2100.05 26.5726L2099.05 28.3029ZM2110.52 30.5178C2114.67 30.5178 2118.21 30.1319 2121.13 29.3388L2120.61 27.4087C2117.91 28.1409 2114.56 28.5178 2110.52 28.5178V30.5178ZM2121.13 29.3388C2124.07 28.541 2126.46 27.2526 2128.24 25.4334L2126.81 24.0341C2125.33 25.5429 2123.29 26.6812 2120.61 27.4087L2121.13 29.3388ZM2127.53 23.7338H2111.3V25.7338H2127.53V23.7338ZM2112.27 24.9918L2114.3 17.3998L2112.36 16.8837L2110.34 24.4757L2112.27 24.9918ZM2113.33 18.1418H2141.72V16.1418H2113.33V18.1418ZM2140.76 16.8826L2135.24 37.4226L2137.18 37.9409L2142.69 17.4009L2140.76 16.8826ZM2136.21 36.6818H2127.37V38.6818H2136.21V36.6818ZM2128.36 37.7821L2128.99 31.5941L2127 31.3934L2126.37 37.5814L2128.36 37.7821ZM2127.34 30.7374C2124.88 32.8609 2121.93 34.4983 2118.48 35.6402L2119.1 37.5394C2122.79 36.3239 2125.97 34.5639 2128.65 32.2501L2127.34 30.7374ZM2118.47 35.6411C2115.05 36.7807 2111.23 37.3578 2106.99 37.3578V39.3578C2111.41 39.3578 2115.45 38.7561 2119.11 37.5384L2118.47 35.6411ZM2106.99 37.3578C2099.23 37.3578 2093.7 35.9957 2090.21 33.4426L2089.03 35.0569C2093.02 37.9811 2099.07 39.3578 2106.99 39.3578V37.3578ZM2090.22 33.4489C2086.78 30.8822 2085.05 27.2923 2085.05 22.5498H2083.05C2083.05 27.8605 2085.03 32.0706 2089.02 35.0507L2090.22 33.4489ZM2145.82 37.6818L2144.85 37.4224L2144.51 38.6818H2145.82V37.6818ZM2155.59 1.28176V0.28176H2154.82L2154.63 1.02238L2155.59 1.28176ZM2201.4 1.28176L2202.37 1.54019L2202.71 0.28176H2201.4V1.28176ZM2199.22 9.44576V10.4458H2199.99L2200.19 9.70419L2199.22 9.44576ZM2164.54 9.44576V8.44576H2163.77L2163.57 9.18643L2164.54 9.44576ZM2163.03 15.0618L2162.06 14.8024L2161.72 16.0618H2163.03V15.0618ZM2194.12 15.0618L2195.09 15.3217L2195.43 14.0618H2194.12V15.0618ZM2191.94 23.1738V24.1738H2192.71L2192.9 23.4337L2191.94 23.1738ZM2160.9 23.1738V22.1738H2160.13L2159.93 22.9127L2160.9 23.1738ZM2159.18 29.5178L2158.21 29.2567L2157.87 30.5178H2159.18V29.5178ZM2194.23 29.5178L2195.19 29.7762L2195.53 28.5178H2194.23V29.5178ZM2192.04 37.6818V38.6818H2192.81L2193.01 37.9402L2192.04 37.6818ZM2146.78 37.9411L2156.56 1.54114L2154.63 1.02238L2144.85 37.4224L2146.78 37.9411ZM2155.59 2.28176L2201.4 2.28176V0.28176L2155.59 0.28176V2.28176ZM2200.44 1.02333L2198.25 9.18733L2200.19 9.70419L2202.37 1.54019L2200.44 1.02333ZM2199.22 8.44576H2164.54V10.4458H2199.22V8.44576ZM2163.57 9.18643L2162.06 14.8024L2163.99 15.3211L2165.5 9.70509L2163.57 9.18643ZM2163.03 16.0618H2194.12V14.0618H2163.03V16.0618ZM2193.16 14.8018L2190.97 22.9138L2192.9 23.4337L2195.09 15.3217L2193.16 14.8018ZM2191.94 22.1738H2160.9V24.1738H2191.94V22.1738ZM2159.93 22.9127L2158.21 29.2567L2160.14 29.7789L2161.86 23.4349L2159.93 22.9127ZM2159.18 30.5178H2194.23V28.5178H2159.18V30.5178ZM2193.26 29.2593L2191.08 37.4233L2193.01 37.9402L2195.19 29.7762L2193.26 29.2593ZM2192.04 36.6818H2145.82V38.6818H2192.04V36.6818ZM2200.35 37.6818L2199.39 37.4224L2199.05 38.6818H2200.35V37.6818ZM2210.13 1.28176V0.28176H2209.36L2209.16 1.02238L2210.13 1.28176ZM2221.26 1.28176L2222 0.616168L2221.71 0.28176H2221.26V1.28176ZM2243.98 26.7618L2243.24 27.4274L2244.47 28.8106L2244.95 27.02L2243.98 26.7618ZM2250.79 1.28176V0.28176H2250.03L2249.83 1.02348L2250.79 1.28176ZM2261.61 1.28176L2262.58 1.53985L2262.91 0.28176H2261.61V1.28176ZM2251.89 37.6818V38.6818H2252.65L2252.85 37.9399L2251.89 37.6818ZM2240.76 37.6818L2240.01 38.3474L2240.31 38.6818H2240.76V37.6818ZM2218.03 12.2018L2218.78 11.5362L2217.55 10.156L2217.07 11.9416L2218.03 12.2018ZM2211.17 37.6818V38.6818H2211.94L2212.14 37.9419L2211.17 37.6818ZM2201.32 37.9411L2211.1 1.54114L2209.16 1.02238L2199.39 37.4224L2201.32 37.9411ZM2210.13 2.28176H2221.26V0.28176H2210.13V2.28176ZM2220.51 1.94735L2243.24 27.4274L2244.73 26.0962L2222 0.616168L2220.51 1.94735ZM2244.95 27.02L2251.76 1.54004L2249.83 1.02348L2243.02 26.5035L2244.95 27.02ZM2250.79 2.28176L2261.61 2.28176V0.28176L2250.79 0.28176V2.28176ZM2260.64 1.02367L2250.92 37.4237L2252.85 37.9399L2262.58 1.53985L2260.64 1.02367ZM2251.89 36.6818H2240.76V38.6818H2251.89V36.6818ZM2241.5 37.0162L2218.78 11.5362L2217.29 12.8674L2240.01 38.3474L2241.5 37.0162ZM2217.07 11.9416L2210.2 37.4216L2212.14 37.9419L2219 12.4619L2217.07 11.9416ZM2211.17 36.6818H2200.35V38.6818H2211.17V36.6818ZM2266.76 13.9178L2267.64 14.4053L2267.64 14.4005L2266.76 13.9178ZM2273.21 6.89776L2272.64 6.07664L2272.64 6.07996L2273.21 6.89776ZM2314.86 3.82976L2314.4 4.71662L2314.41 4.71819L2314.86 3.82976ZM2321.47 13.2418L2321.67 14.2222L2322.52 14.051L2322.47 13.183L2321.47 13.2418ZM2309.56 15.6338L2308.56 15.7003L2308.64 16.8389L2309.76 16.6142L2309.56 15.6338ZM2306.13 11.0058L2305.69 11.906L2305.71 11.9116L2306.13 11.0058ZM2285.02 11.1618L2285.37 12.0963L2285.38 12.0925L2285.02 11.1618ZM2278.57 15.5818L2277.77 14.9794L2277.77 14.9818L2278.57 15.5818ZM2279.92 27.4378L2279.39 28.2836L2279.39 28.2883L2279.4 28.293L2279.92 27.4378ZM2300.82 27.9578L2300.46 27.0276L2300.45 27.0293L2300.82 27.9578ZM2306.86 23.1218L2307.05 22.1414L2306.38 22.0061L2306.01 22.5858L2306.86 23.1218ZM2318.24 25.4098L2319.13 25.8738L2319.75 24.6921L2318.44 24.4294L2318.24 25.4098ZM2312.21 32.6378L2311.61 31.8431L2311.6 31.8472L2312.21 32.6378ZM2302.85 36.9538L2303.09 37.9245L2303.1 37.9223L2302.85 36.9538ZM2270.82 34.2498L2270.27 35.0871L2270.28 35.0891L2270.82 34.2498ZM2265.53 22.6018C2265.53 19.6488 2266.23 16.9225 2267.64 14.4053L2265.89 13.4302C2264.32 16.2517 2263.53 19.3147 2263.53 22.6018H2265.53ZM2267.64 14.4005C2269.05 11.8439 2271.09 9.61405 2273.79 7.71557L2272.64 6.07996C2269.72 8.13348 2267.46 10.5837 2265.89 13.435L2267.64 14.4005ZM2273.78 7.71887C2276.52 5.81907 2279.84 4.319 2283.77 3.23375L2283.24 1.30577C2279.13 2.43918 2275.59 4.02445 2272.64 6.07665L2273.78 7.71887ZM2283.77 3.23375C2287.69 2.15291 2292.16 1.60576 2297.18 1.60576V-0.39424C2292.02 -0.39424 2287.37 0.167947 2283.24 1.30577L2283.77 3.23375ZM2297.18 1.60576C2304.78 1.60576 2310.48 2.67488 2314.4 4.71661L2315.33 2.94291C2310.99 0.685971 2304.91 -0.39424 2297.18 -0.39424V1.60576ZM2314.41 4.71819C2318.3 6.73128 2320.25 9.58018 2320.47 13.3005L2322.47 13.183C2322.2 8.65267 2319.75 5.2269 2315.32 2.94134L2314.41 4.71819ZM2321.27 12.2613L2309.36 14.6533L2309.76 16.6142L2321.67 14.2222L2321.27 12.2613ZM2310.56 15.5672C2310.39 13.0668 2308.98 11.2338 2306.55 10.1L2305.71 11.9116C2307.58 12.7884 2308.45 14.0408 2308.56 15.7003L2310.56 15.5672ZM2306.56 10.1056C2304.21 8.96478 2300.71 8.44576 2296.2 8.44576V10.4458C2300.63 10.4458 2303.75 10.9667 2305.69 11.9059L2306.56 10.1056ZM2296.2 8.44576C2291.58 8.44576 2287.72 9.02554 2284.65 10.231L2285.38 12.0925C2288.14 11.01 2291.73 10.4458 2296.2 10.4458V8.44576ZM2284.66 10.2273C2281.63 11.3806 2279.3 12.9477 2277.77 14.9794L2279.37 16.1842C2280.61 14.5411 2282.58 13.1616 2285.37 12.0962L2284.66 10.2273ZM2277.77 14.9818C2276.3 16.939 2275.54 19.0699 2275.54 21.3538H2277.54C2277.54 19.5469 2278.13 17.8299 2279.37 16.1818L2277.77 14.9818ZM2275.54 21.3538C2275.54 24.3364 2276.85 26.6816 2279.39 28.2836L2280.45 26.592C2278.49 25.3513 2277.54 23.6405 2277.54 21.3538H2275.54ZM2279.4 28.293C2281.93 29.8247 2285.76 30.5178 2290.74 30.5178V28.5178C2285.87 28.5178 2282.49 27.8241 2280.44 26.5826L2279.4 28.293ZM2290.74 30.5178C2294.93 30.5178 2298.44 29.9903 2301.2 28.8862L2300.45 27.0293C2298.01 28.0052 2294.79 28.5178 2290.74 28.5178V30.5178ZM2301.19 28.8879C2304 27.778 2306.19 26.0373 2307.7 23.6578L2306.01 22.5858C2304.75 24.5742 2302.92 26.0575 2300.46 27.0276L2301.19 28.8879ZM2306.66 24.1022L2318.05 26.3902L2318.44 24.4294L2307.05 22.1414L2306.66 24.1022ZM2317.36 24.9458C2315.9 27.7347 2313.98 30.0291 2311.61 31.8431L2312.82 33.4324C2315.44 31.4331 2317.54 28.9088 2319.13 25.8738L2317.36 24.9458ZM2311.6 31.8472C2309.27 33.6521 2306.28 35.0402 2302.6 35.9852L2303.1 37.9223C2306.98 36.926 2310.23 35.4367 2312.83 33.4283L2311.6 31.8472ZM2302.61 35.9831C2298.94 36.8937 2294.43 37.3578 2289.07 37.3578V39.3578C2294.53 39.3578 2299.21 38.8858 2303.09 37.9244L2302.61 35.9831ZM2289.07 37.3578C2281.23 37.3578 2275.36 36 2271.36 33.4104L2270.28 35.0891C2274.74 37.9769 2281.04 39.3578 2289.07 39.3578V37.3578ZM2271.37 33.4124C2267.46 30.8592 2265.53 27.2921 2265.53 22.6018H2263.53C2263.53 27.9648 2265.8 32.163 2270.27 35.0871L2271.37 33.4124ZM2336 37.6818L2335.03 37.4223L2334.69 38.6818H2336V37.6818ZM2339.74 23.7458L2340.71 24.0052L2340.83 23.5568L2340.56 23.1754L2339.74 23.7458ZM2324.14 1.28176V0.28176H2322.23L2323.32 1.85216L2324.14 1.28176ZM2337.76 1.28176L2338.59 0.715628L2338.29 0.28176H2337.76V1.28176ZM2347.23 15.0618L2346.4 15.6279L2347.03 16.5369L2347.87 15.827L2347.23 15.0618ZM2363.61 1.28176V0.28176H2363.24L2362.96 0.516534L2363.61 1.28176ZM2378.64 1.28176L2379.28 2.04607L2381.37 0.28176H2378.64V1.28176ZM2351.02 24.5778L2350.38 23.8134L2350.14 24.0152L2350.06 24.3172L2351.02 24.5778ZM2347.49 37.6818V38.6818H2348.25L2348.45 37.9423L2347.49 37.6818ZM2336.96 37.9412L2340.71 24.0052L2338.77 23.4863L2335.03 37.4223L2336.96 37.9412ZM2340.56 23.1754L2324.96 0.711364L2323.32 1.85216L2338.92 24.3162L2340.56 23.1754ZM2324.14 2.28176H2337.76V0.28176H2324.14V2.28176ZM2336.94 1.84789L2346.4 15.6279L2348.05 14.4956L2338.59 0.715628L2336.94 1.84789ZM2347.87 15.827L2364.25 2.04699L2362.96 0.516534L2346.58 14.2965L2347.87 15.827ZM2363.61 2.28176H2378.64V0.28176H2363.61V2.28176ZM2377.99 0.517447L2350.38 23.8134L2351.67 25.3421L2379.28 2.04607L2377.99 0.517447ZM2350.06 24.3172L2346.52 37.4212L2348.45 37.9423L2351.99 24.8383L2350.06 24.3172ZM2347.49 36.6818H2336V38.6818H2347.49V36.6818Z" fill="#373737" mask="url(#path-1-outside-1_6816_434)"/>
</g>
</svg>
